  0
SECTION
  2
HEADER
  9
$ACADVER
  1
AC1015
  9
$ACADMAINTVER
 70
     6
  9
$DWGCODEPAGE
  3
ANSI_1252
  9
$INSBASE
 10
0.0
 20
0.0
 30
0.0
  9
$EXTMIN
 10
-30.0
 20
-30.0
 30
0.0
  9
$EXTMAX
 10
30.0
 20
30.0
 30
0.0
  9
$LIMMIN
 10
0.0
 20
0.0
  9
$LIMMAX
 10
420.0
 20
297.0
  9
$ORTHOMODE
 70
     0
  9
$REGENMODE
 70
     1
  9
$FILLMODE
 70
     1
  9
$QTEXTMODE
 70
     0
  9
$MIRRTEXT
 70
     1
  9
$LTSCALE
 40
1.0
  9
$ATTMODE
 70
     1
  9
$TEXTSIZE
 40
3.5
  9
$TRACEWID
 40
1.0
  9
$TEXTSTYLE
  7
Standard
  9
$CLAYER
  8
0
  9
$CELTYPE
  6
ByLayer
  9
$CECOLOR
 62
   256
  9
$CELTSCALE
 40
1.0
  9
$DISPSILH
 70
     0
  9
$DIMSCALE
 40
1.0
  9
$DIMASZ
 40
3.302
  9
$DIMEXO
 40
1.0
  9
$DIMDLI
 40
3.75
  9
$DIMRND
 40
0.0
  9
$DIMDLE
 40
0.0
  9
$DIMEXE
 40
1.0
  9
$DIMTP
 40
0.0
  9
$DIMTM
 40
0.0
  9
$DIMTXT
 40
3.5
  9
$DIMCEN
 40
2.5
  9
$DIMTSZ
 40
0.0
  9
$DIMTOL
 70
     0
  9
$DIMLIM
 70
     0
  9
$DIMTIH
 70
     1
  9
$DIMTOH
 70
     1
  9
$DIMSE1
 70
     0
  9
$DIMSE2
 70
     0
  9
$DIMTAD
 70
     1
  9
$DIMZIN
 70
     0
  9
$DIMBLK
  1

  9
$DIMASO
 70
     1
  9
$DIMSHO
 70
     1
  9
$DIMPOST
  1

  9
$DIMAPOST
  1

  9
$DIMALT
 70
     0
  9
$DIMALTD
 70
     3
  9
$DIMALTF
 40
0.0393700787
  9
$DIMLFAC
 40
1.0
  9
$DIMTOFL
 70
     1
  9
$DIMTVP
 40
0.0
  9
$DIMTIX
 70
     0
  9
$DIMSOXD
 70
     0
  9
$DIMSAH
 70
     0
  9
$DIMBLK1
  1

  9
$DIMBLK2
  1

  9
$DIMSTYLE
  2
ISO-25
  9
$DIMCLRD
 70
     0
  9
$DIMCLRE
 70
     0
  9
$DIMCLRT
 70
     0
  9
$DIMTFAC
 40
1.0
  9
$DIMGAP
 40
1.524
  9
$DIMJUST
 70
     0
  9
$DIMSD1
 70
     0
  9
$DIMSD2
 70
     0
  9
$DIMTOLJ
 70
     0
  9
$DIMTZIN
 70
     0
  9
$DIMALTZ
 70
     0
  9
$DIMALTTZ
 70
     0
  9
$DIMUPT
 70
     0
  9
$DIMDEC
 70
     2
  9
$DIMTDEC
 70
     2
  9
$DIMALTU
 70
     2
  9
$DIMALTTD
 70
     3
  9
$DIMTXSTY
  7
Standard
  9
$DIMAUNIT
 70
     0
  9
$DIMADEC
 70
     2
  9
$DIMALTRND
 40
0.0
  9
$DIMAZIN
 70
     0
  9
$DIMDSEP
 70
    44
  9
$DIMATFIT
 70
     3
  9
$DIMFRAC
 70
     0
  9
$DIMLDRBLK
  1

  9
$DIMLUNIT
 70
     2
  9
$DIMLWD
 70
    -2
  9
$DIMLWE
 70
    -2
  9
$DIMTMOVE
 70
     0
  9
$LUNITS
 70
     2
  9
$LUPREC
 70
     2
  9
$SKETCHINC
 40
1.0
  9
$FILLETRAD
 40
10.0
  9
$AUNITS
 70
     0
  9
$AUPREC
 70
     2
  9
$MENU
  1
.
  9
$ELEVATION
 40
0.0
  9
$PELEVATION
 40
0.0
  9
$THICKNESS
 40
0.0
  9
$LIMCHECK
 70
     0
  9
$CHAMFERA
 40
0.0
  9
$CHAMFERB
 40
0.0
  9
$CHAMFERC
 40
0.0
  9
$CHAMFERD
 40
0.0
  9
$SKPOLY
 70
     0
  9
$TDCREATE
 40
2460455.956324907
  9
$TDUCREATE
 40
2460455.872991574
  9
$TDUPDATE
 40
2460455.956371134
  9
$TDUUPDATE
 40
2460455.873037801
  9
$TDINDWG
 40
0.0000000116
  9
$TDUSRTIMER
 40
0.0000000116
  9
$USRTIMER
 70
     1
  9
$ANGBASE
 50
0.0
  9
$ANGDIR
 70
     0
  9
$PDMODE
 70
     0
  9
$PDSIZE
 40
-1.0
  9
$PLINEWID
 40
0.0
  9
$SPLFRAME
 70
     0
  9
$SPLINETYPE
 70
     6
  9
$SPLINESEGS
 70
     8
  9
$HANDSEED
  5
189
  9
$SURFTAB1
 70
     6
  9
$SURFTAB2
 70
     6
  9
$SURFTYPE
 70
     6
  9
$SURFU
 70
     6
  9
$SURFV
 70
     6
  9
$UCSBASE
  2

  9
$UCSNAME
  2

  9
$UCSORG
 10
0.0
 20
0.0
 30
0.0
  9
$UCSXDIR
 10
1.0
 20
0.0
 30
0.0
  9
$UCSYDIR
 10
0.0
 20
1.0
 30
0.0
  9
$UCSORTHOREF
  2

  9
$UCSORTHOVIEW
 70
     0
  9
$UCSORGTOP
 10
0.0
 20
0.0
 30
0.0
  9
$UCSORGBOTTOM
 10
0.0
 20
0.0
 30
0.0
  9
$UCSORGLEFT
 10
0.0
 20
0.0
 30
0.0
  9
$UCSORGRIGHT
 10
0.0
 20
0.0
 30
0.0
  9
$UCSORGFRONT
 10
0.0
 20
0.0
 30
0.0
  9
$UCSORGBACK
 10
0.0
 20
0.0
 30
0.0
  9
$PUCSBASE
  2

  9
$PUCSNAME
  2

  9
$PUCSORG
 10
0.0
 20
0.0
 30
0.0
  9
$PUCSXDIR
 10
1.0
 20
0.0
 30
0.0
  9
$PUCSYDIR
 10
0.0
 20
1.0
 30
0.0
  9
$PUCSORTHOREF
  2

  9
$PUCSORTHOVIEW
 70
     0
  9
$PUCSORGTOP
 10
0.0
 20
0.0
 30
0.0
  9
$PUCSORGBOTTOM
 10
0.0
 20
0.0
 30
0.0
  9
$PUCSORGLEFT
 10
0.0
 20
0.0
 30
0.0
  9
$PUCSORGRIGHT
 10
0.0
 20
0.0
 30
0.0
  9
$PUCSORGFRONT
 10
0.0
 20
0.0
 30
0.0
  9
$PUCSORGBACK
 10
0.0
 20
0.0
 30
0.0
  9
$USERI1
 70
     0
  9
$USERI2
 70
     0
  9
$USERI3
 70
     0
  9
$USERI4
 70
     0
  9
$USERI5
 70
     0
  9
$USERR1
 40
0.0
  9
$USERR2
 40
0.0
  9
$USERR3
 40
0.0
  9
$USERR4
 40
0.0
  9
$USERR5
 40
0.0
  9
$WORLDVIEW
 70
     1
  9
$SHADEDGE
 70
     3
  9
$SHADEDIF
 70
    70
  9
$TILEMODE
 70
     1
  9
$MAXACTVP
 70
    64
  9
$PINSBASE
 10
0.0
 20
0.0
 30
0.0
  9
$PLIMCHECK
 70
     0
  9
$PEXTMIN
 10
1.0000000000E+20
 20
1.0000000000E+20
 30
1.0000000000E+20
  9
$PEXTMAX
 10
-1.0000000000E+20
 20
-1.0000000000E+20
 30
-1.0000000000E+20
  9
$PLIMMIN
 10
0.0
 20
0.0
  9
$PLIMMAX
 10
420.0
 20
297.0
  9
$UNITMODE
 70
     0
  9
$VISRETAIN
 70
     1
  9
$PLINEGEN
 70
     0
  9
$PSLTSCALE
 70
     1
  9
$TREEDEPTH
 70
  3020
  9
$CMLSTYLE
  2
Standard
  9
$CMLJUST
 70
     0
  9
$CMLSCALE
 40
20.0
  9
$PROXYGRAPHICS
 70
     1
  9
$MEASUREMENT
 70
     1
  9
$CELWEIGHT
370
    -1
  9
$ENDCAPS
280
     0
  9
$JOINSTYLE
280
     0
  9
$LWDISPLAY
290
     1
  9
$INSUNITS
 70
     4
  9
$HYPERLINKBASE
  1

  9
$STYLESHEET
  1

  9
$XEDIT
290
     1
  9
$CEPSNTYPE
380
     0
  9
$PSTYLEMODE
290
     1
  9
$FINGERPRINTGUID
  2
{F74918B0-75AA-4DD1-9D29-B77F380B8E57}
  9
$VERSIONGUID
  2
{FAEB1C32-E019-11D5-929B-00C0DF256EC4}
  9
$EXTNAMES
290
     1
  9
$PSVPSCALE
 40
0.0
  9
$OLESTARTUP
290
     0
  0
ENDSEC
  0
SECTION
  2
CLASSES
  0
CLASS
  1
ACDBDICTIONARYWDFLT
  2
AcDbDictionaryWithDefault
  3
ObjectDBX Classes
 90
        0
280
     0
281
     0
  0
CLASS
  1
VISUALSTYLE
  2
AcDbVisualStyle
  3
ObjectDBX Classes
 90
     4095
280
     0
281
     0
  0
CLASS
  1
MATERIAL
  2
AcDbMaterial
  3
ObjectDBX Classes
 90
     1153
280
     0
281
     0
  0
CLASS
  1
SCALE
  2
AcDbScale
  3
ObjectDBX Classes
 90
     1153
280
     0
281
     0
  0
CLASS
  1
TABLESTYLE
  2
AcDbTableStyle
  3
ObjectDBX Classes
 90
     4095
280
     0
281
     0
  0
CLASS
  1
MLEADERSTYLE
  2
AcDbMLeaderStyle
  3
ACDB_MLEADERSTYLE_CLASS
 90
     4095
280
     0
281
     0
  0
CLASS
  1
SUN
  2
AcDbSun
  3
SCENEOE
 90
     1153
280
     0
281
     0
  0
CLASS
  1
ACDBPLACEHOLDER
  2
AcDbPlaceHolder
  3
ObjectDBX Classes
 90
        0
280
     0
281
     0
  0
CLASS
  1
LAYOUT
  2
AcDbLayout
  3
ObjectDBX Classes
 90
        0
280
     0
281
     0
  0
ENDSEC
  0
SECTION
  2
TABLES
  0
TABLE
  2
VPORT
  5
8
330
0
100
AcDbSymbolTable
 70
     1
  0
VPORT
  5
29
330
8
100
AcDbSymbolTableRecord
100
AcDbViewportTableRecord
  2
*Active
 70
     0
 10
0.0
 20
0.0
 11
1.0
 21
1.0
 12
0.0
 22
0.0
 13
0.0
 23
0.0
 14
10.0
 24
10.0
 15
10.0
 25
10.0
 16
0.0
 26
0.0
 36
1.0
 17
0.0
 27
0.0
 37
0.0
 40
61.2
 41
1.0
 42
50.0
 43
0.0
 44
0.0
 50
0.0
 51
0.0
 71
     0
 72
   100
 73
     1
 74
     3
 75
     0
 76
     0
 77
     0
 78
     0
281
     0
 65
     1
110
0.0
120
0.0
130
0.0
111
1.0
121
0.0
131
0.0
112
0.0
122
1.0
132
0.0
 79
     0
146
0.0
  0
ENDTAB
  0
TABLE
  2
LTYPE
  5
5
330
0
100
AcDbSymbolTable
 70
     6
  0
LTYPE
  5
14
330
5
100
AcDbSymbolTableRecord
100
AcDbLinetypeTableRecord
  2
ByBlock
 70
     0
  3

 72
    65
 73
     0
 40
0.0
  0
LTYPE
  5
15
330
5
100
AcDbSymbolTableRecord
100
AcDbLinetypeTableRecord
  2
ByLayer
 70
     0
  3

 72
    65
 73
     0
 40
0.0
  0
LTYPE
  5
16
330
5
100
AcDbSymbolTableRecord
100
AcDbLinetypeTableRecord
  2
Continuous
 70
     0
  3
Solid line
 72
    65
 73
     0
 40
0.0
  0
LTYPE
  5
6E
330
5
100
AcDbSymbolTableRecord
100
AcDbLinetypeTableRecord
  2
HIDDEN
 70
     0
  3
Hidden __ __ __ __ __ __ __ __ __ __ __ __ __ __
 72
    65
 73
     2
 40
1.905
 49
1.27
 74
     0
 49
-0.635
 74
     0
  0
LTYPE
  5
6F
330
5
100
AcDbSymbolTableRecord
100
AcDbLinetypeTableRecord
  2
PHANTOM
 70
     0
  3
Phantom ______  __  __  ______  __  __  ______
 72
    65
 73
     6
 40
12.7
 49
6.35
 74
     0
 49
-1.27
 74
     0
 49
1.27
 74
     0
 49
-1.27
 74
     0
 49
1.27
 74
     0
 49
-1.27
 74
     0
  0
LTYPE
  5
70
330
5
100
AcDbSymbolTableRecord
100
AcDbLinetypeTableRecord
  2
CENTER
 70
     0
  3
Center ____ _ ____ _ ____ _ ____ _ ____ _ ____
 72
    65
 73
     4
 40
10.16
 49
6.35
 74
     0
 49
-1.27
 74
     0
 49
1.27
 74
     0
 49
-1.27
 74
     0
  0
LTYPE
  5
71
330
5
100
AcDbSymbolTableRecord
100
AcDbLinetypeTableRecord
  2
CENTERX2
 70
     0
  3
Center (2x) ________  __  ________  __  _____
 72
    65
 73
     4
 40
20.32
 49
12.7
 74
     0
 49
-2.54
 74
     0
 49
2.54
 74
     0
 49
-2.54
 74
     0
  0
LTYPE
  5
72
330
5
100
AcDbSymbolTableRecord
100
AcDbLinetypeTableRecord
  2
DOT2
 70
     0
  3
Dot (.5x) ........................................
 72
    65
 73
     2
 40
0.635
 49
0.0
 74
     0
 49
-0.635
 74
     0
  0
ENDTAB
  0
TABLE
  2
LAYER
  5
2
330
0
100
AcDbSymbolTable
 70
     1
  0
LAYER
  5
10
330
2
100
AcDbSymbolTableRecord
100
AcDbLayerTableRecord
  2
0
 70
     0
 62
     7
  6
Continuous
370
    -3
390
F
  0
ENDTAB
  0
TABLE
  2
STYLE
  5
3
330
0
100
AcDbSymbolTable
 70
     1
  0
STYLE
  5
11
330
3
100
AcDbSymbolTableRecord
100
AcDbTextStyleTableRecord
  2
Standard
 70
     0
 40
0.0
 41
1.0
 50
0.0
 71
     0
 42
3.5
  3
txt
  4

  0
ENDTAB
  0
TABLE
  2
VIEW
  5
6
330
0
100
AcDbSymbolTable
 70
     0
  0
ENDTAB
  0
TABLE
  2
UCS
  5
7
330
0
100
AcDbSymbolTable
 70
     0
  0
ENDTAB
  0
TABLE
  2
APPID
  5
9
330
0
100
AcDbSymbolTable
 70
     1
  0
APPID
  5
12
330
9
100
AcDbSymbolTableRecord
100
AcDbRegAppTableRecord
  2
ACAD
 70
     0
  0
ENDTAB
  0
TABLE
  2
DIMSTYLE
  5
A
330
0
100
AcDbSymbolTable
 70
     1
100
AcDbDimStyleTable
  0
DIMSTYLE
105
27
330
A
100
AcDbSymbolTableRecord
100
AcDbDimStyleTableRecord
  2
ISO-25
 70
     0
 41
2.5
 42
0.625
 43
3.75
 44
1.25
 73
     0
 74
     0
 77
     1
 78
     8
140
2.5
141
2.5
143
0.0393700787
147
0.625
171
     3
172
     1
178
     0
271
     2
272
     2
274
     3
278
    44
283
     0
284
     8
340
11
  0
ENDTAB
  0
TABLE
  2
BLOCK_RECORD
  5
1
330
0
100
AcDbSymbolTable
 70
     1
  0
BLOCK_RECORD
  5
1F
330
1
100
AcDbSymbolTableRecord
100
AcDbBlockTableRecord
  2
*Model_Space
340
22
  0
BLOCK_RECORD
  5
1B
330
1
100
AcDbSymbolTableRecord
100
AcDbBlockTableRecord
  2
*Paper_Space
340
1E
  0
BLOCK_RECORD
  5
23
330
1
100
AcDbSymbolTableRecord
100
AcDbBlockTableRecord
  2
*Paper_Space0
340
26
  0
ENDTAB
  0
ENDSEC
  0
SECTION
  2
BLOCKS
  0
BLOCK
  5
20
330
1F
100
AcDbEntity
  8
0
100
AcDbBlockBegin
  2
*Model_Space
 70
     0
 10
0.0
 20
0.0
 30
0.0
  3
*Model_Space
  1

  0
ENDBLK
  5
21
330
1F
100
AcDbEntity
  8
0
100
AcDbBlockEnd
  0
BLOCK
  5
1C
330
1B
100
AcDbEntity
 67
     1
  8
0
100
AcDbBlockBegin
  2
*Paper_Space
 70
     0
 10
0.0
 20
0.0
 30
0.0
  3
*Paper_Space
  1

  0
ENDBLK
  5
1D
330
1B
100
AcDbEntity
 67
     1
  8
0
100
AcDbBlockEnd
  0
BLOCK
  5
24
330
23
100
AcDbEntity
  8
0
100
AcDbBlockBegin
  2
*Paper_Space0
 70
     0
 10
0.0
 20
0.0
 30
0.0
  3
*Paper_Space0
  1

  0
ENDBLK
  5
25
330
23
100
AcDbEntity
  8
0
100
AcDbBlockEnd
  0
ENDSEC
  0
SECTION
  2
ENTITIES
  0
SPLINE
  5
73
330
1F
100
AcDbEntity
  8
0
  6
Continuous
 62
     7
370
    15
100
AcDbSpline
210
0.0
220
0.0
230
1.0
 70
     8
 71
     3
 72
    15
 73
    11
 74
     0
 42
0.000000001
 43
0.00000001
 40
0.0
 40
0.0
 40
0.0
 40
0.0
 40
0.1836505417901739
 40
0.3470682714732871
 40
0.4889461501376581
 40
0.6140964620980637
 40
0.7224828561517147
 40
0.8196713675968293
 40
0.9099162007873042
 40
1.0
 40
1.0
 40
1.0
 40
1.0
 10
-9.901959730981032
 20
-14.06418218763228
 30
0.0
 10
-9.927971754262026
 20
-13.94754782218271
 30
0.0
 10
-9.977130051698325
 20
-13.72712871959594
 30
0.0
 10
-10.06869628853548
 20
-13.42157862136883
 30
0.0
 10
-10.18305831186025
 20
-13.165589333884
 30
0.0
 10
-10.29826095351223
 20
-12.94911618580382
 30
0.0
 10
-10.43789829051707
 20
-12.78323658520385
 30
0.0
 10
-10.58820973077633
 20
-12.66123526248551
 30
0.0
 10
-10.75608860396806
 20
-12.58522396563106
 30
0.0
 10
-10.87396028563152
 20
-12.57731607799358
 30
0.0
 10
-10.93284349659102
 20
-12.57336566505783
 30
0.0
  0
SPLINE
  5
74
330
1F
100
AcDbEntity
  8
0
  6
Continuous
 62
     7
370
    15
100
AcDbSpline
210
0.0
220
0.0
230
1.0
 70
     8
 71
     3
 72
    15
 73
    11
 74
     0
 42
0.000000001
 43
0.00000001
 40
0.0
 40
0.0
 40
0.0
 40
0.0
 40
0.2007961108683326
 40
0.375457050084602
 40
0.5240525241324716
 40
0.6476162191680125
 40
0.7524520160910484
 40
0.8460028043673467
 40
0.9291553259277818
 40
1.0
 40
1.0
 40
1.0
 40
1.0
 10
-9.746534178627527
 20
-17.0902225334536
 30
0.0
 10
-9.747527241864601
 20
-16.88722086572931
 30
0.0
 10
-9.74938411345403
 20
-16.50763977226881
 30
0.0
 10
-9.752916563801456
 20
-15.97778512090391
 30
0.0
 10
-9.769932422450541
 20
-15.52630867524142
 30
0.0
 10
-9.78904787536374
 20
-15.14566160030665
 30
0.0
 10
-9.80991881356055
 20
-14.82075223627393
 30
0.0
 10
-9.840848257220925
 20
-14.53777878732625
 30
0.0
 10
-9.86655446914811
 20
-14.28876645686563
 30
0.0
 10
-9.890804005233479
 20
-14.13494569523194
 30
0.0
 10
-9.901959730981032
 20
-14.06418218763228
 30
0.0
  0
SPLINE
  5
7A
330
1F
100
AcDbEntity
  8
0
  6
Continuous
 62
     7
370
    15
100
AcDbSpline
210
0.0
220
0.0
230
1.0
 70
     8
 71
     3
 72
    15
 73
    11
 74
     0
 42
0.000000001
 43
0.00000001
 40
0.0
 40
0.0
 40
0.0
 40
0.0
 40
0.1149416698265754
 40
0.2241856618339909
 40
0.3356474961260354
 40
0.4516790674504959
 40
0.5744457248776675
 40
0.7031628380207099
 40
0.8441686769860518
 40
1.0
 40
1.0
 40
1.0
 40
1.0
 10
-7.599123996110718
 20
-9.636139920581366
 30
0.0
 10
-7.542631299209678
 20
-9.638672679062111
 30
0.0
 10
-7.43244625785213
 20
-9.643612646761627
 30
0.0
 10
-7.275251769081367
 20
-9.698062398945272
 30
0.0
 10
-7.13290737441854
 20
-9.784126714657274
 30
0.0
 10
-7.012760090084456
 20
-9.908503952308523
 30
0.0
 10
-6.910074477287816
 20
-10.05736033992773
 30
0.0
 10
-6.835891447093148
 20
-10.2363661661601
 30
0.0
 10
-6.796927814772803
 20
-10.44226394524522
 30
0.0
 10
-6.79048636649827
 20
-10.58757004266536
 30
0.0
 10
-6.787104783814845
 20
-10.66385173614333
 30
0.0
  0
SPLINE
  5
7B
330
1F
100
AcDbEntity
  8
0
  6
Continuous
 62
     7
370
    15
100
AcDbSpline
210
0.0
220
0.0
230
1.0
 70
     8
 71
     3
 72
    17
 73
    13
 74
     0
 42
0.000000001
 43
0.00000001
 40
0.0
 40
0.0
 40
0.0
 40
0.0
 40
0.16022237373993
 40
0.3007692451866378
 40
0.4222672400522809
 40
0.5234974441683453
 40
0.6111765625470277
 40
0.68749767227659
 40
0.7545100813025166
 40
0.8117987407103107
 40
0.9101982356509765
 40
1.0
 40
1.0
 40
1.0
 40
1.0
 10
-10.00980603261408
 20
-10.94932724046609
 30
0.0
 10
-9.888084371807402
 20
-10.86493703628385
 30
0.0
 10
-9.65958861813
 20
-10.70651984759436
 30
0.0
 10
-9.340723360110536
 20
-10.48121269807758
 30
0.0
 10
-9.05833636037874
 20
-10.29936138812746
 30
0.0
 10
-8.816014108424046
 20
-10.14559585322269
 30
0.0
 10
-8.604215314991109
 20
-10.02201728392797
 30
0.0
 10
-8.419597569719448
 20
-9.914621629737612
 30
0.0
 10
-8.254255376928826
 20
-9.830267319606156
 30
0.0
 10
-8.070472186916628
 20
-9.73834406675683
 30
0.0
 10
-7.856996452831433
 20
-9.652861045694756
 30
0.0
 10
-7.682423095837892
 20
-9.641541252255493
 30
0.0
 10
-7.599123996110717
 20
-9.636139920581364
 30
0.0
  0
SPLINE
  5
80
330
1F
100
AcDbEntity
  8
0
  6
Continuous
 62
     7
370
    15
100
AcDbSpline
210
0.0
220
0.0
230
1.0
 70
     8
 71
     3
 72
     9
 73
     5
 74
     0
 42
0.000000001
 43
0.00000001
 40
0.0
 40
0.0
 40
0.0
 40
0.0
 40
0.4849952808794625
 40
1.0
 40
1.0
 40
1.0
 40
1.0
 10
-10.93284349659102
 20
-12.57336566505783
 30
0.0
 10
-11.01291488266689
 20
-12.58043779275878
 30
0.0
 10
-11.17801213048067
 20
-12.5950196412422
 30
0.0
 10
-11.31977018599319
 20
-12.68122374639965
 30
0.0
 10
-11.39277625355548
 20
-12.7256192673633
 30
0.0
  0
SPLINE
  5
81
330
1F
100
AcDbEntity
  8
0
  6
Continuous
 62
     7
370
    15
100
AcDbSpline
210
0.0
220
0.0
230
1.0
 70
     8
 71
     3
 72
    19
 73
    15
 74
     0
 42
0.000000001
 43
0.00000001
 40
0.0
 40
0.0
 40
0.0
 40
0.0
 40
0.0997590586644591
 40
0.1991303769295416
 40
0.2993610604013254
 40
0.3997448179852731
 40
0.4534599777236386
 40
0.5131039556565581
 40
0.5787060122229534
 40
0.650266648498819
 40
0.7284343478151158
 40
0.8132168390203175
 40
0.903297922037257
 40
1.0
 40
1.0
 40
1.0
 40
1.0
 10
-18.12999815557277
 20
-22.9202667217341
 30
0.0
 10
-18.28403693038319
 20
-22.87985716537609
 30
0.0
 10
-18.59151576689603
 20
-22.79919511526401
 30
0.0
 10
-19.05968204754055
 20
-22.70109297584831
 30
0.0
 10
-19.53514023007931
 20
-22.6414213373355
 30
0.0
 10
-19.93962999015002
 20
-22.60533267959319
 30
0.0
 10
-20.28049840323975
 20
-22.58925820200985
 30
0.0
 10
-20.56604653708607
 20
-22.58057947496895
 30
0.0
 10
-20.88006893790365
 20
-22.57103293698684
 30
0.0
 10
-21.22365785474637
 20
-22.56079543679679
 30
0.0
 10
-21.59797665777688
 20
-22.55462958309527
 30
0.0
 10
-22.00189347098661
 20
-22.55262590651573
 30
0.0
 10
-22.43538403524478
 20
-22.5481807562893
 30
0.0
 10
-22.73355370762054
 20
-22.54881842821554
 30
0.0
 10
-22.88792322761888
 20
-22.5491485661145
 30
0.0
  0
SPLINE
  5
89
330
1F
100
AcDbEntity
  8
0
  6
Continuous
 62
     7
370
    15
100
AcDbSpline
210
0.0
220
0.0
230
1.0
 70
     8
 71
     3
 72
    19
 73
    15
 74
     0
 42
0.000000001
 43
0.00000001
 40
0.0
 40
0.0
 40
0.0
 40
0.0
 40
0.0881229649572795
 40
0.1769043175699971
 40
0.2694186368200798
 40
0.3644732215113101
 40
0.4168746208362407
 40
0.476580042921501
 40
0.5443819566321806
 40
0.6199769921277105
 40
0.703403975705749
 40
0.7937590687059906
 40
0.8929295931046763
 40
0.9999999999999999
 40
0.9999999999999999
 40
0.9999999999999999
 40
0.9999999999999999
 10
-16.96589248794549
 20
-13.58204578033161
 30
0.0
 10
-16.98499249652201
 20
-13.7211522110419
 30
0.0
 10
-17.02333521438729
 20
-14.00040436973098
 30
0.0
 10
-17.13887505972814
 20
-14.4146853524937
 30
0.0
 10
-17.29709850862309
 20
-14.8256892393516
 30
0.0
 10
-17.46854509555355
 20
-15.16783584043321
 30
0.0
 10
-17.63719268580905
 20
-15.45125500563804
 30
0.0
 10
-17.78920291609122
 20
-15.6940563214564
 30
0.0
 10
-17.97456709592797
 20
-15.95905841510997
 30
0.0
 10
-18.18705812734542
 20
-16.25098120488369
 30
0.0
 10
-18.42781294639926
 20
-16.56664518367761
 30
0.0
 10
-18.69605230016297
 20
-16.90846701350477
 30
0.0
 10
-18.993532746888
 20
-17.27512097107581
 30
0.0
 10
-19.20391509267579
 20
-17.52715671386357
 30
0.0
 10
-19.31313552348823
 20
-17.65800159205111
 30
0.0
  0
SPLINE
  5
8A
330
1F
100
AcDbEntity
  8
0
  6
Continuous
 62
     7
370
    15
100
AcDbSpline
210
0.0
220
0.0
230
1.0
 70
     8
 71
     3
 72
     9
 73
     5
 74
     0
 42
0.000000001
 43
0.00000001
 40
0.0
 40
0.0
 40
0.0
 40
0.0
 40
0.5953686334369028
 40
1.0
 40
1.0
 40
1.0
 40
1.0
 10
-16.94368883760927
 20
-13.36318122701748
 30
0.0
 10
-16.94962292698736
 20
-13.40646864328023
 30
0.0
 10
-16.95959001131936
 20
-13.47917555767185
 30
0.0
 10
-16.96407693705387
 20
-13.5524120132349
 30
0.0
 10
-16.96589248794549
 20
-13.58204578033161
 30
0.0
  0
SPLINE
  5
8C
330
1F
100
AcDbEntity
  8
0
  6
Continuous
 62
     7
370
    15
100
AcDbSpline
210
0.0
220
0.0
230
1.0
 70
     8
 71
     3
 72
    15
 73
    11
 74
     0
 42
0.000000001
 43
0.00000001
 40
0.0
 40
0.0
 40
0.0
 40
0.0
 40
0.1315760461996121
 40
0.2575988610555992
 40
0.3800710229019758
 40
0.5021546475657428
 40
0.6232162027254673
 40
0.7449229194250983
 40
0.8700810735393905
 40
1.0
 40
1.0
 40
1.0
 40
1.0
 10
-18.2156408068696
 20
-10.31493723085994
 30
0.0
 10
-18.11413713688323
 20
-10.4058564571612
 30
0.0
 10
-17.9154138089168
 20
-10.58385761937677
 30
0.0
 10
-17.65810808399846
 20
-10.88253362040119
 30
0.0
 10
-17.43532272298207
 20
-11.19541429210924
 30
0.0
 10
-17.25483885093227
 20
-11.52895794160638
 30
0.0
 10
-17.11371602680247
 20
-11.88011004537025
 30
0.0
 10
-17.01621384939605
 20
-12.24879597699526
 30
0.0
 10
-16.9531563773413
 20
-12.63463009738515
 30
0.0
 10
-16.94688370866178
 20
-12.89876570011297
 30
0.0
 10
-16.94368883760927
 20
-13.03329842202229
 30
0.0
  0
SPLINE
  5
8D
330
1F
100
AcDbEntity
  8
0
  6
Continuous
 62
     7
370
    15
100
AcDbSpline
210
0.0
220
0.0
230
1.0
 70
     8
 71
     3
 72
     9
 73
     5
 74
     0
 42
0.000000001
 43
0.00000001
 40
0.0
 40
0.0
 40
0.0
 40
0.0
 40
0.4366319100584536
 40
0.9999999999999999
 40
0.9999999999999999
 40
0.9999999999999999
 40
0.9999999999999999
 10
-18.58993091253723
 20
-10.02946172653718
 30
0.0
 10
-18.5318207310964
 20
-10.06617429806814
 30
0.0
 10
-18.39873338657996
 20
-10.15025558183425
 30
0.0
 10
-18.28161920157878
 20
-10.25559331393025
 30
0.0
 10
-18.2156408068696
 20
-10.31493723085994
 30
0.0
  0
SPLINE
  5
8E
330
1F
100
AcDbEntity
  8
0
  6
Continuous
 62
     7
370
    15
100
AcDbSpline
210
0.0
220
0.0
230
1.0
 70
     8
 71
     3
 72
    11
 73
     7
 74
     0
 42
0.000000001
 43
0.00000001
 40
0.0
 40
0.0
 40
0.0
 40
0.0
 40
0.3950705407435625
 40
0.6943297572059243
 40
0.8981488418417476
 40
1.0
 40
1.0
 40
1.0
 40
1.0
 10
-19.00545636882926
 20
-9.832800823559271
 30
0.0
 10
-18.95015692705397
 20
-9.85750506311183
 30
0.0
 10
-18.85296909849759
 20
-9.900922344031338
 30
0.0
 10
-18.73107531039457
 20
-9.965131828452664
 30
0.0
 10
-18.6445125264431
 20
-9.998998970024163
 30
0.0
 10
-18.60357240615565
 20
-10.02184821955499
 30
0.0
 10
-18.58993091253723
 20
-10.02946172653718
 30
0.0
  0
SPLINE
  5
8F
330
1F
100
AcDbEntity
  8
0
  6
Continuous
 62
     7
370
    15
100
AcDbSpline
210
0.0
220
0.0
230
1.0
 70
     8
 71
     3
 72
    11
 73
     7
 74
     0
 42
0.000000001
 43
0.00000001
 40
0.0
 40
0.0
 40
0.0
 40
0.0
 40
0.2118727754336749
 40
0.446769785314938
 40
0.708520126361679
 40
1.0
 40
1.0
 40
1.0
 40
1.0
 10
-20.42966194039506
 20
-9.502918018564076
 30
0.0
 10
-20.3257294319659
 20
-9.506440915332345
 30
0.0
 10
-20.1065700596346
 20
-9.513869542392259
 30
0.0
 10
-19.76568488363771
 20
-9.585327888367006
 30
0.0
 10
-19.39222763797781
 20
-9.684459306920537
 30
0.0
 10
-19.13891759087067
 20
-9.781613360401353
 30
0.0
 10
-19.00545636882926
 20
-9.832800823559271
 30
0.0
  0
SPLINE
  5
90
330
1F
100
AcDbEntity
  8
0
  6
Continuous
 62
     7
370
    15
100
AcDbSpline
210
0.0
220
0.0
230
1.0
 70
     8
 71
     3
 72
    15
 73
    11
 74
     0
 42
0.000000001
 43
0.00000001
 40
0.0
 40
0.0
 40
0.0
 40
0.0
 40
0.1756654596642735
 40
0.3360987199863397
 40
0.4815505856417091
 40
0.6119481290276311
 40
0.7292386590351424
 40
0.8320282883036189
 40
0.9213610435599816
 40
1.0
 40
1.0
 40
1.0
 40
1.0
 10
-23.6745668395305
 20
-10.97153089080231
 30
0.0
 10
-23.49883513792832
 20
-10.8549771605471
 30
0.0
 10
-23.16260967799787
 20
-10.63197623809328
 30
0.0
 10
-22.66765749047081
 20
-10.33302104813958
 30
0.0
 10
-22.20765943495121
 20
-10.08241433166573
 30
0.0
 10
-21.78447307513501
 20
-9.873372265451774
 30
0.0
 10
-21.39628669555392
 20
-9.709791185727187
 30
0.0
 10
-21.04293814570651
 20
-9.595430681486123
 30
0.0
 10
-20.72594127672732
 20
-9.517253413202608
 30
0.0
 10
-20.52413919071021
 20
-9.507489274475462
 30
0.0
 10
-20.42966194039505
 20
-9.502918018564074
 30
0.0
  0
SPLINE
  5
91
330
1F
100
AcDbEntity
  8
0
  6
Continuous
 62
     7
370
    15
100
AcDbSpline
210
0.0
220
0.0
230
1.0
 70
     8
 71
     3
 72
    11
 73
     7
 74
     0
 42
0.000000001
 43
0.00000001
 40
0.0
 40
0.0
 40
0.0
 40
0.0
 40
0.1474624866051749
 40
0.3650514488409757
 40
0.6467922873704764
 40
1.0
 40
1.0
 40
1.0
 40
1.0
 10
-24.17890689716739
 20
-11.32361734613372
 30
0.0
 10
-24.1545739467661
 20
-11.30566383006716
 30
0.0
 10
-24.09433639752178
 20
-11.26121891934601
 30
0.0
 10
-23.98808623597377
 20
-11.18179239261171
 30
0.0
 10
-23.84337235859473
 20
-11.08362039949811
 30
0.0
 10
-23.73490487861687
 20
-11.01159629384334
 30
0.0
 10
-23.67456683953051
 20
-10.97153089080231
 30
0.0
  0
SPLINE
  5
92
330
1F
100
AcDbEntity
  8
0
  6
Continuous
 62
     7
370
    15
100
AcDbSpline
210
0.0
220
0.0
230
1.0
 70
     8
 71
     3
 72
     9
 73
     5
 74
     0
 42
0.000000001
 43
0.00000001
 40
0.0
 40
0.0
 40
0.0
 40
0.0
 40
0.4960211127746517
 40
1.0
 40
1.0
 40
1.0
 40
1.0
 10
-24.64201160417988
 20
-11.71693915208953
 30
0.0
 10
-24.56610285619371
 20
-11.65112880573225
 30
0.0
 10
-24.41306753968964
 20
-11.51845230333671
 30
0.0
 10
-24.25737343752425
 20
-11.38890596538084
 30
0.0
 10
-24.17890689716739
 20
-11.32361734613372
 30
0.0
  0
SPLINE
  5
96
330
1F
100
AcDbEntity
  8
0
  6
Continuous
 62
     7
370
    15
100
AcDbSpline
210
0.0
220
0.0
230
1.0
 70
     8
 71
     3
 72
    11
 73
     7
 74
     0
 42
0.000000001
 43
0.00000001
 40
0.0
 40
0.0
 40
0.0
 40
0.0
 40
0.2259691491893702
 40
0.502784510884124
 40
0.7760508109024982
 40
0.9999999999999999
 40
0.9999999999999999
 40
0.9999999999999999
 40
0.9999999999999999
 10
-22.99576952925192
 20
-11.93580370540365
 30
0.0
 10
-23.05399430737901
 20
-11.93812063985683
 30
0.0
 10
-23.18354525137726
 20
-11.94327585135349
 30
0.0
 10
-23.38184907389453
 20
-11.97083353537748
 30
0.0
 10
-23.57958934816497
 20
-11.99685029918223
 30
0.0
 10
-23.70630697318652
 20
-12.01599527935243
 30
0.0
 10
-23.76338144087537
 20
-12.02461830674851
 30
0.0
  0
SPLINE
  5
97
330
1F
100
AcDbEntity
  8
0
  6
Continuous
 62
     7
370
    15
100
AcDbSpline
210
0.0
220
0.0
230
1.0
 70
     8
 71
     3
 72
     9
 73
     5
 74
     0
 42
0.000000001
 43
0.00000001
 40
0.0
 40
0.0
 40
0.0
 40
0.0
 40
0.5879173912103947
 40
1.0
 40
1.0
 40
1.0
 40
1.0
 10
-22.53583677228747
 20
-11.98021100607608
 30
0.0
 10
-22.62552162346443
 20
-11.96649192573722
 30
0.0
 10
-22.77806831202609
 20
-11.94315687808601
 30
0.0
 10
-22.93223862463439
 20
-11.9379495533611
 30
0.0
 10
-22.99576952925192
 20
-11.93580370540365
 30
0.0
  0
SPLINE
  5
98
330
1F
100
AcDbEntity
  8
0
  6
Continuous
 62
     7
370
    15
100
AcDbSpline
210
0.0
220
0.0
230
1.0
 70
     8
 71
     3
 72
    15
 73
    11
 74
     0
 42
0.000000001
 43
0.00000001
 40
0.0
 40
0.0
 40
0.0
 40
0.0
 40
0.1339098648161379
 40
0.259910139838587
 40
0.3792299136601548
 40
0.4960336489048066
 40
0.6131019319918536
 40
0.7342229491183351
 40
0.8628299835042393
 40
0.9999999999999999
 40
0.9999999999999999
 40
0.9999999999999999
 40
0.9999999999999999
 10
-19.86188288179755
 20
-14.2830467409464
 30
0.0
 10
-19.90880232560378
 20
-14.12052426398264
 30
0.0
 10
-19.99986984492038
 20
-13.80507894729472
 30
0.0
 10
-20.21336577988545
 20
-13.37467133268456
 30
0.0
 10
-20.47055991250064
 20
-12.99505733157771
 30
0.0
 10
-20.78723983731479
 20
-12.67845802164151
 30
0.0
 10
-21.15077050596122
 20
-12.41416446740354
 30
0.0
 10
-21.56620712744159
 20
-12.20657974631084
 30
0.0
 10
-22.03286093386685
 20
-12.05652732590191
 30
0.0
 10
-22.36461526544746
 20
-12.00619037581697
 30
0.0
 10
-22.53583677228747
 20
-11.98021100607608
 30
0.0
  0
SPLINE
  5
99
330
1F
100
AcDbEntity
  8
0
  6
Continuous
 62
     7
370
    15
100
AcDbSpline
210
0.0
220
0.0
230
1.0
 70
     8
 71
     3
 72
    11
 73
     7
 74
     0
 42
0.000000001
 43
0.00000001
 40
0.0
 40
0.0
 40
0.0
 40
0.0
 40
0.2490719053800356
 40
0.5290475497331729
 40
0.795549610671556
 40
1.0
 40
1.0
 40
1.0
 40
1.0
 10
-19.77306828045269
 20
-14.93964040088876
 30
0.0
 10
-19.77520282000476
 20
-14.88456148722791
 30
0.0
 10
-19.77973674332344
 20
-14.76756971222313
 30
0.0
 10
-19.80766925618476
 20
-14.59364827749556
 30
0.0
 10
-19.83307914625271
 20
-14.42960328736359
 30
0.0
 10
-19.85316373730922
 20
-14.32741069859808
 30
0.0
 10
-19.86188288179755
 20
-14.2830467409464
 30
0.0
  0
SPLINE
  5
9A
330
1F
100
AcDbEntity
  8
0
  6
Continuous
 62
     7
370
    15
100
AcDbSpline
210
0.0
220
0.0
230
1.0
 70
     8
 71
     3
 72
    11
 73
     7
 74
     0
 42
0.000000001
 43
0.00000001
 40
0.0
 40
0.0
 40
0.0
 40
0.0
 40
0.2857343757100672
 40
0.5460927255956289
 40
0.7832328235172055
 40
0.9999999999999999
 40
0.9999999999999999
 40
0.9999999999999999
 40
0.9999999999999999
 10
-20.25520468775337
 20
-16.69372877744976
 30
0.0
 10
-20.18067269017254
 20
-16.53553107221073
 30
0.0
 10
-20.03822787021744
 20
-16.23318517552865
 30
0.0
 10
-19.89194811271964
 20
-15.7766453344274
 30
0.0
 10
-19.78995252957375
 20
-15.35015634594383
 30
0.0
 10
-19.77852540052661
 20
-15.07232233352097
 30
0.0
 10
-19.77306828045269
 20
-14.93964040088876
 30
0.0
  0
SPLINE
  5
9B
330
1F
100
AcDbEntity
  8
0
  6
Continuous
 62
     7
370
    15
100
AcDbSpline
210
0.0
220
0.0
230
1.0
 70
     8
 71
     3
 72
    13
 73
     9
 74
     0
 42
0.000000001
 43
0.00000001
 40
0.0
 40
0.0
 40
0.0
 40
0.0
 40
0.2853822225885451
 40
0.561475739427957
 40
0.6911223486387365
 40
0.8071138709285486
 40
0.9103648070958943
 40
0.9999999999999999
 40
0.9999999999999999
 40
0.9999999999999999
 40
0.9999999999999999
 10
-22.46922582127882
 20
-19.56751552096561
 30
0.0
 10
-22.22887594215189
 20
-19.31801191274377
 30
0.0
 10
-21.75599916349291
 20
-18.82712561420135
 30
0.0
 10
-21.22411892842451
 20
-18.17722162839026
 30
0.0
 10
-20.84962631126464
 20
-17.66656377788896
 30
0.0
 10
-20.61036718934217
 20
-17.3172236584811
 30
0.0
 10
-20.41107576708539
 20
-16.99927210493487
 30
0.0
 10
-20.30465771369279
 20
-16.79066813377225
 30
0.0
 10
-20.25520468775337
 20
-16.69372877744976
 30
0.0
  0
SPLINE
  5
A0
330
1F
100
AcDbEntity
  8
0
  6
Continuous
 62
     7
370
    15
100
AcDbSpline
210
0.0
220
0.0
230
1.0
 70
     8
 71
     3
 72
    13
 73
     9
 74
     0
 42
0.000000001
 43
0.00000001
 40
0.0
 40
0.0
 40
0.0
 40
0.0
 40
0.2883670401938179
 40
0.5845625050121057
 40
0.7237175279285711
 40
0.8381237754861132
 40
0.9315738781929408
 40
1.0
 40
1.0
 40
1.0
 40
1.0
 10
-22.88792322761888
 20
-22.5491485661145
 30
0.0
 10
-23.03614020410477
 20
-22.5516611257559
 30
0.0
 10
-23.33659786737196
 20
-22.55675445458076
 30
0.0
 10
-23.70563922395091
 20
-22.6053992148862
 30
0.0
 10
-23.98561109956961
 20
-22.64181869139158
 30
0.0
 10
-24.16183638360459
 20
-22.66866410701324
 30
0.0
 10
-24.30251278239344
 20
-22.68739371030587
 30
0.0
 10
-24.38507536559298
 20
-22.69724005510869
 30
0.0
 10
-24.41997510081773
 20
-22.70140216841998
 30
0.0
  0
SPLINE
  5
A1
330
1F
100
AcDbEntity
  8
0
  6
Continuous
 62
     7
370
    15
100
AcDbSpline
210
0.0
220
0.0
230
1.0
 70
     8
 71
     3
 72
    19
 73
    15
 74
     0
 42
0.000000001
 43
0.00000001
 40
0.0
 40
0.0
 40
0.0
 40
0.0
 40
0.0997590586644598
 40
0.1991303769295424
 40
0.2993610604013269
 40
0.3997448179852732
 40
0.4534599777236395
 40
0.5131039556565582
 40
0.5787060122229535
 40
0.650266648498819
 40
0.7284343478151174
 40
0.8132168390203176
 40
0.903297922037257
 40
1.0
 40
1.0
 40
1.0
 40
1.0
 10
24.09500088381243
 20
4.673362480955613
 30
0.0
 10
23.94096210900201
 20
4.713772037313626
 30
0.0
 10
23.63348327248916
 20
4.794434087425707
 30
0.0
 10
23.16531699184464
 20
4.892536226841411
 30
0.0
 10
22.6898588093059
 20
4.952207865354217
 30
0.0
 10
22.28536904923518
 20
4.988296523096524
 30
0.0
 10
21.94450063614546
 20
5.004371000679865
 30
0.0
 10
21.65895250229913
 20
5.013049727720764
 30
0.0
 10
21.34493010148156
 20
5.02259626570288
 30
0.0
 10
21.00134118463882
 20
5.032833765892919
 30
0.0
 10
20.62702238160833
 20
5.038999619594449
 30
0.0
 10
20.22310556839859
 20
5.041003296173974
 30
0.0
 10
19.78961500414042
 20
5.045448446400418
 30
0.0
 10
19.49144533176467
 20
5.044810774474169
 30
0.0
 10
19.33707581176632
 20
5.04448063657521
 30
0.0
  0
SPLINE
  5
A9
330
1F
100
AcDbEntity
  8
0
  6
Continuous
 62
     7
370
    15
100
AcDbSpline
210
0.0
220
0.0
230
1.0
 70
     8
 71
     3
 72
    19
 73
    15
 74
     0
 42
0.000000001
 43
0.00000001
 40
0.0
 40
0.0
 40
0.0
 40
0.0
 40
0.0881229649572797
 40
0.1769043175699972
 40
0.2694186368200801
 40
0.3644732215113107
 40
0.4168746208362406
 40
0.4765800429215012
 40
0.544381956632181
 40
0.6199769921277102
 40
0.7034039757057485
 40
0.79375906870599
 40
0.8929295931046751
 40
1.0
 40
1.0
 40
1.0
 40
1.0
 10
25.25910655143971
 20
14.01158342235811
 30
0.0
 10
25.2400065428632
 20
13.87247699164781
 30
0.0
 10
25.2016638249979
 20
13.59322483295873
 30
0.0
 10
25.08612397965707
 20
13.17894385019602
 30
0.0
 10
24.9279005307621
 20
12.76793996333811
 30
0.0
 10
24.75645394383165
 20
12.42579336225651
 30
0.0
 10
24.58780635357615
 20
12.14237419705167
 30
0.0
 10
24.43579612329397
 20
11.89957288123331
 30
0.0
 10
24.25043194345723
 20
11.63457078757975
 30
0.0
 10
24.03794091203978
 20
11.34264799780602
 30
0.0
 10
23.79718609298594
 20
11.02698401901211
 30
0.0
 10
23.52894673922224
 20
10.68516218918494
 30
0.0
 10
23.23146629249721
 20
10.3185082316139
 30
0.0
 10
23.02108394670941
 20
10.06647248882615
 30
0.0
 10
22.91186351589696
 20
9.935627610638612
 30
0.0
  0
SPLINE
  5
AA
330
1F
100
AcDbEntity
  8
0
  6
Continuous
 62
     7
370
    15
100
AcDbSpline
210
0.0
220
0.0
230
1.0
 70
     8
 71
     3
 72
     9
 73
     5
 74
     0
 42
0.000000001
 43
0.00000001
 40
0.0
 40
0.0
 40
0.0
 40
0.0
 40
0.5953686334369054
 40
1.0
 40
1.0
 40
1.0
 40
1.0
 10
25.28131020177592
 20
14.23044797567223
 30
0.0
 10
25.27537611239783
 20
14.18716055940948
 30
0.0
 10
25.26540902806585
 20
14.11445364501786
 30
0.0
 10
25.26092210233133
 20
14.04121718945482
 30
0.0
 10
25.25910655143971
 20
14.01158342235811
 30
0.0
  0
SPLINE
  5
AC
330
1F
100
AcDbEntity
  8
0
  6
Continuous
 62
     7
370
    15
100
AcDbSpline
210
0.0
220
0.0
230
1.0
 70
     8
 71
     3
 72
    15
 73
    11
 74
     0
 42
0.000000001
 43
0.00000001
 40
0.0
 40
0.0
 40
0.0
 40
0.0
 40
0.1315760461996121
 40
0.2575988610556004
 40
0.380071022901977
 40
0.5021546475657429
 40
0.6232162027254683
 40
0.7449229194250984
 40
0.8700810735393905
 40
1.0
 40
1.0
 40
1.0
 40
1.0
 10
24.0093582325156
 20
17.27869197182977
 30
0.0
 10
24.11086190250197
 20
17.18777274552851
 30
0.0
 10
24.3095852304684
 20
17.00977158331294
 30
0.0
 10
24.56689095538673
 20
16.71109558228852
 30
0.0
 10
24.78967631640314
 20
16.39821491058048
 30
0.0
 10
24.97016018845293
 20
16.06467126108333
 30
0.0
 10
25.11128301258274
 20
15.71351915731947
 30
0.0
 10
25.20878518998915
 20
15.34483322569446
 30
0.0
 10
25.27184266204388
 20
14.95899910530457
 30
0.0
 10
25.27811533072342
 20
14.69486350257675
 30
0.0
 10
25.28131020177592
 20
14.56033078066743
 30
0.0
  0
SPLINE
  5
AD
330
1F
100
AcDbEntity
  8
0
  6
Continuous
 62
     7
370
    15
100
AcDbSpline
210
0.0
220
0.0
230
1.0
 70
     8
 71
     3
 72
     9
 73
     5
 74
     0
 42
0.000000001
 43
0.00000001
 40
0.0
 40
0.0
 40
0.0
 40
0.0
 40
0.436631910058451
 40
1.0
 40
1.0
 40
1.0
 40
1.0
 10
23.63506812684798
 20
17.56416747615254
 30
0.0
 10
23.6931783082888
 20
17.52745490462158
 30
0.0
 10
23.82626565280524
 20
17.44337362085546
 30
0.0
 10
23.94337983780642
 20
17.33803588875947
 30
0.0
 10
24.0093582325156
 20
17.27869197182977
 30
0.0
  0
SPLINE
  5
AE
330
1F
100
AcDbEntity
  8
0
  6
Continuous
 62
     7
370
    15
100
AcDbSpline
210
0.0
220
0.0
230
1.0
 70
     8
 71
     3
 72
    11
 73
     7
 74
     0
 42
0.000000001
 43
0.00000001
 40
0.0
 40
0.0
 40
0.0
 40
0.0
 40
0.3950705407435665
 40
0.694329757205916
 40
0.8981488418417484
 40
1.0
 40
1.0
 40
1.0
 40
1.0
 10
23.21954267055595
 20
17.76082837913044
 30
0.0
 10
23.27484211233124
 20
17.73612413957789
 30
0.0
 10
23.37202994088761
 20
17.69270685865839
 30
0.0
 10
23.49392372899064
 20
17.62849737423705
 30
0.0
 10
23.58048651294209
 20
17.59463023266556
 30
0.0
 10
23.62142663322955
 20
17.57178098313473
 30
0.0
 10
23.63506812684797
 20
17.56416747615254
 30
0.0
  0
SPLINE
  5
AF
330
1F
100
AcDbEntity
  8
0
  6
Continuous
 62
     7
370
    15
100
AcDbSpline
210
0.0
220
0.0
230
1.0
 70
     8
 71
     3
 72
    11
 73
     7
 74
     0
 42
0.000000001
 43
0.00000001
 40
0.0
 40
0.0
 40
0.0
 40
0.0
 40
0.2118727754336725
 40
0.4467697853149336
 40
0.7085201263616768
 40
1.0
 40
1.0
 40
1.0
 40
1.0
 10
21.79533709899015
 20
18.09071118412564
 30
0.0
 10
21.89926960741931
 20
18.08718828735737
 30
0.0
 10
22.11842897975061
 20
18.07975966029746
 30
0.0
 10
22.45931415574749
 20
18.0083013143227
 30
0.0
 10
22.8327714014074
 20
17.90916989576919
 30
0.0
 10
23.08608144851453
 20
17.81201584228836
 30
0.0
 10
23.21954267055595
 20
17.76082837913044
 30
0.0
  0
SPLINE
  5
B0
330
1F
100
AcDbEntity
  8
0
  6
Continuous
 62
     7
370
    15
100
AcDbSpline
210
0.0
220
0.0
230
1.0
 70
     8
 71
     3
 72
    15
 73
    11
 74
     0
 42
0.000000001
 43
0.00000001
 40
0.0
 40
0.0
 40
0.0
 40
0.0
 40
0.1756654596642732
 40
0.3360987199863384
 40
0.4815505856417081
 40
0.611948129027631
 40
0.7292386590351423
 40
0.8320282883036186
 40
0.9213610435599796
 40
0.9999999999999999
 40
0.9999999999999999
 40
0.9999999999999999
 40
0.9999999999999999
 10
18.5504321998547
 20
16.62209831188741
 30
0.0
 10
18.72616390145688
 20
16.73865204214261
 30
0.0
 10
19.06238936138733
 20
16.96165296459644
 30
0.0
 10
19.55734154891439
 20
17.26060815455014
 30
0.0
 10
20.01733960443399
 20
17.51121487102398
 30
0.0
 10
20.44052596425019
 20
17.72025693723794
 30
0.0
 10
20.82871234383127
 20
17.88383801696252
 30
0.0
 10
21.1820608936787
 20
17.99819852120359
 30
0.0
 10
21.49905776265788
 20
18.07637578948711
 30
0.0
 10
21.70085984867499
 20
18.08613992821425
 30
0.0
 10
21.79533709899015
 20
18.09071118412564
 30
0.0
  0
SPLINE
  5
B1
330
1F
100
AcDbEntity
  8
0
  6
Continuous
 62
     7
370
    15
100
AcDbSpline
210
0.0
220
0.0
230
1.0
 70
     8
 71
     3
 72
    11
 73
     7
 74
     0
 42
0.000000001
 43
0.00000001
 40
0.0
 40
0.0
 40
0.0
 40
0.0
 40
0.1474624866051658
 40
0.3650514488409711
 40
0.6467922873704796
 40
0.9999999999999999
 40
0.9999999999999999
 40
0.9999999999999999
 40
0.9999999999999999
 10
18.04609214221781
 20
16.27001185655599
 30
0.0
 10
18.0704250926191
 20
16.28796537262255
 30
0.0
 10
18.13066264186342
 20
16.3324102833437
 30
0.0
 10
18.23691280341145
 20
16.41183681007801
 30
0.0
 10
18.38162668079046
 20
16.5100088031916
 30
0.0
 10
18.49009416076833
 20
16.58203290884638
 30
0.0
 10
18.5504321998547
 20
16.62209831188741
 30
0.0
  0
SPLINE
  5
B2
330
1F
100
AcDbEntity
  8
0
  6
Continuous
 62
     7
370
    15
100
AcDbSpline
210
0.0
220
0.0
230
1.0
 70
     8
 71
     3
 72
     9
 73
     5
 74
     0
 42
0.000000001
 43
0.00000001
 40
0.0
 40
0.0
 40
0.0
 40
0.0
 40
0.496021112774651
 40
1.0
 40
1.0
 40
1.0
 40
1.0
 10
17.58298743520533
 20
15.87669005060018
 30
0.0
 10
17.65889618319149
 20
15.94250039695747
 30
0.0
 10
17.81193149969555
 20
16.07517689935301
 30
0.0
 10
17.96762560186095
 20
16.20472323730888
 30
0.0
 10
18.04609214221781
 20
16.27001185655599
 30
0.0
  0
SPLINE
  5
B6
330
1F
100
AcDbEntity
  8
0
  6
Continuous
 62
     7
370
    15
100
AcDbSpline
210
0.0
220
0.0
230
1.0
 70
     8
 71
     3
 72
    11
 73
     7
 74
     0
 42
0.000000001
 43
0.00000001
 40
0.0
 40
0.0
 40
0.0
 40
0.0
 40
0.2259691491893668
 40
0.5027845108841261
 40
0.7760508109025018
 40
0.9999999999999999
 40
0.9999999999999999
 40
0.9999999999999999
 40
0.9999999999999999
 10
19.22922951013328
 20
15.65782549728607
 30
0.0
 10
19.17100473200619
 20
15.65550856283289
 30
0.0
 10
19.04145378800793
 20
15.65035335133623
 30
0.0
 10
18.84314996549069
 20
15.62279566731224
 30
0.0
 10
18.64540969122022
 20
15.59677890350747
 30
0.0
 10
18.51869206619868
 20
15.57763392333728
 30
0.0
 10
18.46161759850984
 20
15.5690108959412
 30
0.0
  0
SPLINE
  5
B7
330
1F
100
AcDbEntity
  8
0
  6
Continuous
 62
     7
370
    15
100
AcDbSpline
210
0.0
220
0.0
230
1.0
 70
     8
 71
     3
 72
     9
 73
     5
 74
     0
 42
0.000000001
 43
0.00000001
 40
0.0
 40
0.0
 40
0.0
 40
0.0
 40
0.5879173912103975
 40
0.9999999999999999
 40
0.9999999999999999
 40
0.9999999999999999
 40
0.9999999999999999
 10
19.68916226709774
 20
15.61341819661363
 30
0.0
 10
19.59947741592077
 20
15.6271372769525
 30
0.0
 10
19.4469307273591
 20
15.6504723246037
 30
0.0
 10
19.29276041475081
 20
15.65567964932861
 30
0.0
 10
19.22922951013328
 20
15.65782549728607
 30
0.0
  0
SPLINE
  5
B8
330
1F
100
AcDbEntity
  8
0
  6
Continuous
 62
     7
370
    15
100
AcDbSpline
210
0.0
220
0.0
230
1.0
 70
     8
 71
     3
 72
    15
 73
    11
 74
     0
 42
0.000000001
 43
0.00000001
 40
0.0
 40
0.0
 40
0.0
 40
0.0
 40
0.1339098648161373
 40
0.2599101398385874
 40
0.3792299136601549
 40
0.496033648904807
 40
0.6131019319918535
 40
0.7342229491183351
 40
0.8628299835042401
 40
1.0
 40
1.0
 40
1.0
 40
1.0
 10
22.36311615758765
 20
13.31058246174332
 30
0.0
 10
22.31619671378142
 20
13.47310493870707
 30
0.0
 10
22.22512919446483
 20
13.78855025539499
 30
0.0
 10
22.01163325949974
 20
14.21895787000515
 30
0.0
 10
21.75443912688457
 20
14.59857187111201
 30
0.0
 10
21.43775920207042
 20
14.9151711810482
 30
0.0
 10
21.07422853342398
 20
15.17946473528619
 30
0.0
 10
20.6587919119436
 20
15.38704945637887
 30
0.0
 10
20.19213810551835
 20
15.53710187678781
 30
0.0
 10
19.86038377393774
 20
15.58743882687275
 30
0.0
 10
19.68916226709774
 20
15.61341819661363
 30
0.0
  0
SPLINE
  5
B9
330
1F
100
AcDbEntity
  8
0
  6
Continuous
 62
     7
370
    15
100
AcDbSpline
210
0.0
220
0.0
230
1.0
 70
     8
 71
     3
 72
    11
 73
     7
 74
     0
 42
0.000000001
 43
0.00000001
 40
0.0
 40
0.0
 40
0.0
 40
0.0
 40
0.2490719053800378
 40
0.5290475497331736
 40
0.795549610671555
 40
1.0
 40
1.0
 40
1.0
 40
1.0
 10
22.45193075893251
 20
12.65398880180095
 30
0.0
 10
22.44979621938044
 20
12.7090677154618
 30
0.0
 10
22.44526229606176
 20
12.82605949046659
 30
0.0
 10
22.41732978320044
 20
12.99998092519415
 30
0.0
 10
22.39191989313248
 20
13.16402591532613
 30
0.0
 10
22.37183530207598
 20
13.26621850409164
 30
0.0
 10
22.36311615758765
 20
13.31058246174332
 30
0.0
  0
SPLINE
  5
BA
330
1F
100
AcDbEntity
  8
0
  6
Continuous
 62
     7
370
    15
100
AcDbSpline
210
0.0
220
0.0
230
1.0
 70
     8
 71
     3
 72
    11
 73
     7
 74
     0
 42
0.000000001
 43
0.00000001
 40
0.0
 40
0.0
 40
0.0
 40
0.0
 40
0.2857343757100667
 40
0.5460927255956287
 40
0.7832328235172062
 40
1.0
 40
1.0
 40
1.0
 40
1.0
 10
21.96979435163184
 20
10.89990042523995
 30
0.0
 10
22.04432634921267
 20
11.05809813047898
 30
0.0
 10
22.18677116916776
 20
11.36044402716106
 30
0.0
 10
22.33305092666556
 20
11.81698386826232
 30
0.0
 10
22.43504650981145
 20
12.24347285674588
 30
0.0
 10
22.44647363885858
 20
12.52130686916875
 30
0.0
 10
22.45193075893251
 20
12.65398880180095
 30
0.0
  0
SPLINE
  5
BB
330
1F
100
AcDbEntity
  8
0
  6
Continuous
 62
     7
370
    15
100
AcDbSpline
210
0.0
220
0.0
230
1.0
 70
     8
 71
     3
 72
    13
 73
     9
 74
     0
 42
0.000000001
 43
0.00000001
 40
0.0
 40
0.0
 40
0.0
 40
0.0
 40
0.285382222588545
 40
0.5614757394279563
 40
0.6911223486387358
 40
0.8071138709285487
 40
0.9103648070958945
 40
1.0
 40
1.0
 40
1.0
 40
1.0
 10
19.75577321810638
 20
8.026113681724105
 30
0.0
 10
19.99612309723331
 20
8.275617289945947
 30
0.0
 10
20.4689998758923
 20
8.766503588488366
 30
0.0
 10
21.00088011096068
 20
9.416407574299463
 30
0.0
 10
21.37537272812055
 20
9.92706542480075
 30
0.0
 10
21.61463185004304
 20
10.27640554420862
 30
0.0
 10
21.8139232722998
 20
10.59435709775483
 30
0.0
 10
21.92034132569241
 20
10.80296106891746
 30
0.0
 10
21.96979435163184
 20
10.89990042523995
 30
0.0
  0
SPLINE
  5
C0
330
1F
100
AcDbEntity
  8
0
  6
Continuous
 62
     7
370
    15
100
AcDbSpline
210
0.0
220
0.0
230
1.0
 70
     8
 71
     3
 72
    13
 73
     9
 74
     0
 42
0.000000001
 43
0.00000001
 40
0.0
 40
0.0
 40
0.0
 40
0.0
 40
0.2883670401938201
 40
0.5845625050121057
 40
0.7237175279285732
 40
0.8381237754861129
 40
0.9315738781929429
 40
1.0
 40
1.0
 40
1.0
 40
1.0
 10
19.33707581176632
 20
5.04448063657521
 30
0.0
 10
19.18885883528043
 20
5.04196807693382
 30
0.0
 10
18.88840117201324
 20
5.036874748108946
 30
0.0
 10
18.5193598154343
 20
4.988229987803525
 30
0.0
 10
18.23938793981558
 20
4.951810511298126
 30
0.0
 10
18.06316265578061
 20
4.924965095676482
 30
0.0
 10
17.92248625699176
 20
4.906235492383843
 30
0.0
 10
17.83992367379223
 20
4.896389147581031
 30
0.0
 10
17.80502393856748
 20
4.892227034269735
 30
0.0
  0
SPLINE
  5
C1
330
1F
100
AcDbEntity
  8
0
  6
Continuous
 62
     7
370
    15
100
AcDbSpline
210
0.0
220
0.0
230
1.0
 70
     8
 71
     3
 72
    19
 73
    15
 74
     0
 42
0.000000001
 43
0.00000001
 40
0.0
 40
0.0
 40
0.0
 40
0.0
 40
0.0997590586644598
 40
0.1991303769295424
 40
0.2993610604013269
 40
0.3997448179852732
 40
0.4534599777236395
 40
0.5131039556565582
 40
0.5787060122229535
 40
0.6502666484988205
 40
0.7284343478151174
 40
0.8132168390203176
 40
0.9032979220372584
 40
1.0
 40
1.0
 40
1.0
 40
1.0
 10
12.11771750244836
 20
4.673362480955613
 30
0.0
 10
11.96367872763794
 20
4.713772037313626
 30
0.0
 10
11.65619989112509
 20
4.794434087425707
 30
0.0
 10
11.18803361048058
 20
4.892536226841411
 30
0.0
 10
10.71257542794183
 20
4.952207865354217
 30
0.0
 10
10.3080856678711
 20
4.988296523096523
 30
0.0
 10
9.967217254781383
 20
5.004371000679866
 30
0.0
 10
9.68166912093506
 20
5.013049727720763
 30
0.0
 10
9.367646720117483
 20
5.022596265702882
 30
0.0
 10
9.024057803274747
 20
5.032833765892916
 30
0.0
 10
8.649739000244258
 20
5.038999619594452
 30
0.0
 10
8.245822187034513
 20
5.041003296173973
 30
0.0
 10
7.812331622776352
 20
5.045448446400417
 30
0.0
 10
7.514161950400592
 20
5.044810774474168
 30
0.0
 10
7.359792430402252
 20
5.04448063657521
 30
0.0
  0
SPLINE
  5
C9
330
1F
100
AcDbEntity
  8
0
  6
Continuous
 62
     7
370
    15
100
AcDbSpline
210
0.0
220
0.0
230
1.0
 70
     8
 71
     3
 72
    19
 73
    15
 74
     0
 42
0.000000001
 43
0.00000001
 40
0.0
 40
0.0
 40
0.0
 40
0.0
 40
0.0881229649572797
 40
0.1769043175699972
 40
0.2694186368200801
 40
0.3644732215113107
 40
0.4168746208362413
 40
0.4765800429215012
 40
0.544381956632181
 40
0.6199769921277102
 40
0.7034039757057485
 40
0.79375906870599
 40
0.8929295931046751
 40
1.0
 40
1.0
 40
1.0
 40
1.0
 10
13.28182317007564
 20
14.01158342235811
 30
0.0
 10
13.26272316149912
 20
13.87247699164781
 30
0.0
 10
13.22438044363383
 20
13.59322483295873
 30
0.0
 10
13.108840598293
 20
13.17894385019602
 30
0.0
 10
12.95061714939802
 20
12.7679399633381
 30
0.0
 10
12.77917056246759
 20
12.42579336225651
 30
0.0
 10
12.61052297221206
 20
12.14237419705167
 30
0.0
 10
12.45851274192991
 20
11.89957288123332
 30
0.0
 10
12.27314856209316
 20
11.63457078757974
 30
0.0
 10
12.06065753067571
 20
11.34264799780602
 30
0.0
 10
11.81990271162187
 20
11.02698401901211
 30
0.0
 10
11.55166335785817
 20
10.68516218918494
 30
0.0
 10
11.25418291113314
 20
10.3185082316139
 30
0.0
 10
11.04380056534534
 20
10.06647248882615
 30
0.0
 10
10.93458013453289
 20
9.935627610638612
 30
0.0
  0
SPLINE
  5
CA
330
1F
100
AcDbEntity
  8
0
  6
Continuous
 62
     7
370
    15
100
AcDbSpline
210
0.0
220
0.0
230
1.0
 70
     8
 71
     3
 72
     9
 73
     5
 74
     0
 42
0.000000001
 43
0.00000001
 40
0.0
 40
0.0
 40
0.0
 40
0.0
 40
0.5953686334369083
 40
1.0
 40
1.0
 40
1.0
 40
1.0
 10
13.30402682041185
 20
14.23044797567223
 30
0.0
 10
13.29809273103376
 20
14.18716055940948
 30
0.0
 10
13.28812564670176
 20
14.11445364501786
 30
0.0
 10
13.28363872096726
 20
14.04121718945482
 30
0.0
 10
13.28182317007564
 20
14.01158342235811
 30
0.0
  0
SPLINE
  5
CC
330
1F
100
AcDbEntity
  8
0
  6
Continuous
 62
     7
370
    15
100
AcDbSpline
210
0.0
220
0.0
230
1.0
 70
     8
 71
     3
 72
    15
 73
    11
 74
     0
 42
0.000000001
 43
0.00000001
 40
0.0
 40
0.0
 40
0.0
 40
0.0
 40
0.1315760461996121
 40
0.2575988610556004
 40
0.380071022901977
 40
0.5021546475657429
 40
0.6232162027254683
 40
0.7449229194250984
 40
0.8700810735393905
 40
1.0
 40
1.0
 40
1.0
 40
1.0
 10
12.03207485115153
 20
17.27869197182977
 30
0.0
 10
12.1335785211379
 20
17.18777274552851
 30
0.0
 10
12.33230184910433
 20
17.00977158331294
 30
0.0
 10
12.58960757402266
 20
16.71109558228852
 30
0.0
 10
12.81239293503907
 20
16.39821491058048
 30
0.0
 10
12.99287680708885
 20
16.06467126108333
 30
0.0
 10
13.13399963121867
 20
15.71351915731947
 30
0.0
 10
13.23150180862508
 20
15.34483322569446
 30
0.0
 10
13.29455928067982
 20
14.95899910530457
 30
0.0
 10
13.30083194935935
 20
14.69486350257675
 30
0.0
 10
13.30402682041185
 20
14.56033078066743
 30
0.0
  0
SPLINE
  5
CD
330
1F
100
AcDbEntity
  8
0
  6
Continuous
 62
     7
370
    15
100
AcDbSpline
210
0.0
220
0.0
230
1.0
 70
     8
 71
     3
 72
     9
 73
     5
 74
     0
 42
0.000000001
 43
0.00000001
 40
0.0
 40
0.0
 40
0.0
 40
0.0
 40
0.436631910058451
 40
1.0
 40
1.0
 40
1.0
 40
1.0
 10
11.6577847454839
 20
17.56416747615254
 30
0.0
 10
11.71589492692472
 20
17.52745490462158
 30
0.0
 10
11.84898227144116
 20
17.44337362085546
 30
0.0
 10
11.96609645644235
 20
17.33803588875947
 30
0.0
 10
12.03207485115153
 20
17.27869197182977
 30
0.0
  0
SPLINE
  5
CE
330
1F
100
AcDbEntity
  8
0
  6
Continuous
 62
     7
370
    15
100
AcDbSpline
210
0.0
220
0.0
230
1.0
 70
     8
 71
     3
 72
    11
 73
     7
 74
     0
 42
0.000000001
 43
0.00000001
 40
0.0
 40
0.0
 40
0.0
 40
0.0
 40
0.3950705407435665
 40
0.694329757205916
 40
0.8981488418417484
 40
1.0
 40
1.0
 40
1.0
 40
1.0
 10
11.24225928919188
 20
17.76082837913044
 30
0.0
 10
11.29755873096717
 20
17.73612413957789
 30
0.0
 10
11.39474655952355
 20
17.69270685865839
 30
0.0
 10
11.51664034762657
 20
17.62849737423705
 30
0.0
 10
11.60320313157802
 20
17.59463023266556
 30
0.0
 10
11.64414325186548
 20
17.57178098313473
 30
0.0
 10
11.6577847454839
 20
17.56416747615254
 30
0.0
  0
SPLINE
  5
CF
330
1F
100
AcDbEntity
  8
0
  6
Continuous
 62
     7
370
    15
100
AcDbSpline
210
0.0
220
0.0
230
1.0
 70
     8
 71
     3
 72
    11
 73
     7
 74
     0
 42
0.000000001
 43
0.00000001
 40
0.0
 40
0.0
 40
0.0
 40
0.0
 40
0.2118727754336762
 40
0.4467697853149362
 40
0.7085201263616783
 40
1.0
 40
1.0
 40
1.0
 40
1.0
 10
9.81805371762607
 20
18.09071118412564
 30
0.0
 10
9.921986226055223
 20
18.08718828735737
 30
0.0
 10
10.14114559838653
 20
18.07975966029746
 30
0.0
 10
10.48203077438342
 20
18.0083013143227
 30
0.0
 10
10.85548802004333
 20
17.90916989576919
 30
0.0
 10
11.10879806715046
 20
17.81201584228836
 30
0.0
 10
11.24225928919188
 20
17.76082837913044
 30
0.0
  0
SPLINE
  5
D0
330
1F
100
AcDbEntity
  8
0
  6
Continuous
 62
     7
370
    15
100
AcDbSpline
210
0.0
220
0.0
230
1.0
 70
     8
 71
     3
 72
    15
 73
    11
 74
     0
 42
0.000000001
 43
0.00000001
 40
0.0
 40
0.0
 40
0.0
 40
0.0
 40
0.1756654596642748
 40
0.3360987199863401
 40
0.4815505856417098
 40
0.6119481290276327
 40
0.7292386590351442
 40
0.8320282883036187
 40
0.9213610435599816
 40
1.0
 40
1.0
 40
1.0
 40
1.0
 10
6.573148818490624
 20
16.62209831188741
 30
0.0
 10
6.748880520092807
 20
16.73865204214261
 30
0.0
 10
7.085105980023259
 20
16.96165296459644
 30
0.0
 10
7.58005816755032
 20
17.26060815455013
 30
0.0
 10
8.040056223069914
 20
17.51121487102398
 30
0.0
 10
8.463242582886119
 20
17.72025693723794
 30
0.0
 10
8.851428962467214
 20
17.88383801696254
 30
0.0
 10
9.204777512314624
 20
17.99819852120359
 30
0.0
 10
9.521774381293806
 20
18.07637578948711
 30
0.0
 10
9.723576467310915
 20
18.08613992821425
 30
0.0
 10
9.81805371762607
 20
18.09071118412564
 30
0.0
  0
SPLINE
  5
D1
330
1F
100
AcDbEntity
  8
0
  6
Continuous
 62
     7
370
    15
100
AcDbSpline
210
0.0
220
0.0
230
1.0
 70
     8
 71
     3
 72
    11
 73
     7
 74
     0
 42
0.000000001
 43
0.00000001
 40
0.0
 40
0.0
 40
0.0
 40
0.0
 40
0.147462486605175
 40
0.3650514488409803
 40
0.6467922873704889
 40
1.0
 40
1.0
 40
1.0
 40
1.0
 10
6.068808760853736
 20
16.27001185655599
 30
0.0
 10
6.093141711255029
 20
16.28796537262255
 30
0.0
 10
6.153379260499345
 20
16.3324102833437
 30
0.0
 10
6.259629422047375
 20
16.41183681007801
 30
0.0
 10
6.404343299426388
 20
16.5100088031916
 30
0.0
 10
6.512810779404252
 20
16.58203290884637
 30
0.0
 10
6.573148818490623
 20
16.62209831188741
 30
0.0
  0
SPLINE
  5
D2
330
1F
100
AcDbEntity
  8
0
  6
Continuous
 62
     7
370
    15
100
AcDbSpline
210
0.0
220
0.0
230
1.0
 70
     8
 71
     3
 72
     9
 73
     5
 74
     0
 42
0.000000001
 43
0.00000001
 40
0.0
 40
0.0
 40
0.0
 40
0.0
 40
0.4960211127746554
 40
1.0
 40
1.0
 40
1.0
 40
1.0
 10
5.605704053841254
 20
15.87669005060019
 30
0.0
 10
5.681612801827422
 20
15.94250039695747
 30
0.0
 10
5.834648118331488
 20
16.07517689935302
 30
0.0
 10
5.990342220496873
 20
16.20472323730888
 30
0.0
 10
6.068808760853736
 20
16.27001185655599
 30
0.0
  0
SPLINE
  5
D6
330
1F
100
AcDbEntity
  8
0
  6
Continuous
 62
     7
370
    15
100
AcDbSpline
210
0.0
220
0.0
230
1.0
 70
     8
 71
     3
 72
    11
 73
     7
 74
     0
 42
0.000000001
 43
0.00000001
 40
0.0
 40
0.0
 40
0.0
 40
0.0
 40
0.2259691491893668
 40
0.5027845108841261
 40
0.7760508109025018
 40
0.9999999999999999
 40
0.9999999999999999
 40
0.9999999999999999
 40
0.9999999999999999
 10
7.251946128769207
 20
15.65782549728607
 30
0.0
 10
7.193721350642119
 20
15.65550856283289
 30
0.0
 10
7.064170406643862
 20
15.65035335133623
 30
0.0
 10
6.865866584126612
 20
15.62279566731224
 30
0.0
 10
6.668126309856149
 20
15.59677890350747
 30
0.0
 10
6.541408684834607
 20
15.57763392333728
 30
0.0
 10
6.484334217145768
 20
15.5690108959412
 30
0.0
  0
SPLINE
  5
D7
330
1F
100
AcDbEntity
  8
0
  6
Continuous
 62
     7
370
    15
100
AcDbSpline
210
0.0
220
0.0
230
1.0
 70
     8
 71
     3
 72
     9
 73
     5
 74
     0
 42
0.000000001
 43
0.00000001
 40
0.0
 40
0.0
 40
0.0
 40
0.0
 40
0.5879173912103975
 40
0.9999999999999999
 40
0.9999999999999999
 40
0.9999999999999999
 40
0.9999999999999999
 10
7.711878885733666
 20
15.61341819661363
 30
0.0
 10
7.622194034556703
 20
15.6271372769525
 30
0.0
 10
7.469647345995032
 20
15.6504723246037
 30
0.0
 10
7.315477033386739
 20
15.65567964932861
 30
0.0
 10
7.251946128769207
 20
15.65782549728607
 30
0.0
  0
SPLINE
  5
D8
330
1F
100
AcDbEntity
  8
0
  6
Continuous
 62
     7
370
    15
100
AcDbSpline
210
0.0
220
0.0
230
1.0
 70
     8
 71
     3
 72
    15
 73
    11
 74
     0
 42
0.000000001
 43
0.00000001
 40
0.0
 40
0.0
 40
0.0
 40
0.0
 40
0.1339098648161373
 40
0.2599101398385874
 40
0.3792299136601549
 40
0.496033648904807
 40
0.6131019319918535
 40
0.7342229491183351
 40
0.8628299835042401
 40
1.0
 40
1.0
 40
1.0
 40
1.0
 10
10.38583277622358
 20
13.31058246174332
 30
0.0
 10
10.33891333241735
 20
13.47310493870707
 30
0.0
 10
10.24784581310075
 20
13.78855025539499
 30
0.0
 10
10.03434987813567
 20
14.21895787000515
 30
0.0
 10
9.7771557455205
 20
14.59857187111201
 30
0.0
 10
9.460475820706348
 20
14.9151711810482
 30
0.0
 10
9.096945152059915
 20
15.17946473528619
 30
0.0
 10
8.681508530579537
 20
15.38704945637887
 30
0.0
 10
8.214854724154277
 20
15.53710187678781
 30
0.0
 10
7.88310039257367
 20
15.58743882687275
 30
0.0
 10
7.711878885733666
 20
15.61341819661363
 30
0.0
  0
SPLINE
  5
D9
330
1F
100
AcDbEntity
  8
0
  6
Continuous
 62
     7
370
    15
100
AcDbSpline
210
0.0
220
0.0
230
1.0
 70
     8
 71
     3
 72
    11
 73
     7
 74
     0
 42
0.000000001
 43
0.00000001
 40
0.0
 40
0.0
 40
0.0
 40
0.0
 40
0.2490719053800378
 40
0.5290475497331736
 40
0.795549610671555
 40
1.0
 40
1.0
 40
1.0
 40
1.0
 10
10.47464737756844
 20
12.65398880180095
 30
0.0
 10
10.47251283801637
 20
12.7090677154618
 30
0.0
 10
10.46797891469769
 20
12.82605949046659
 30
0.0
 10
10.44004640183637
 20
12.99998092519415
 30
0.0
 10
10.41463651176842
 20
13.16402591532613
 30
0.0
 10
10.3945519207119
 20
13.26621850409164
 30
0.0
 10
10.38583277622358
 20
13.31058246174332
 30
0.0
  0
SPLINE
  5
DA
330
1F
100
AcDbEntity
  8
0
  6
Continuous
 62
     7
370
    15
100
AcDbSpline
210
0.0
220
0.0
230
1.0
 70
     8
 71
     3
 72
    11
 73
     7
 74
     0
 42
0.000000001
 43
0.00000001
 40
0.0
 40
0.0
 40
0.0
 40
0.0
 40
0.2857343757100667
 40
0.5460927255956287
 40
0.7832328235172062
 40
1.0
 40
1.0
 40
1.0
 40
1.0
 10
9.992510970267766
 20
10.89990042523995
 30
0.0
 10
10.0670429678486
 20
11.05809813047898
 30
0.0
 10
10.20948778780369
 20
11.36044402716106
 30
0.0
 10
10.35576754530149
 20
11.81698386826232
 30
0.0
 10
10.45776312844737
 20
12.24347285674588
 30
0.0
 10
10.46919025749452
 20
12.52130686916875
 30
0.0
 10
10.47464737756844
 20
12.65398880180095
 30
0.0
  0
SPLINE
  5
DB
330
1F
100
AcDbEntity
  8
0
  6
Continuous
 62
     7
370
    15
100
AcDbSpline
210
0.0
220
0.0
230
1.0
 70
     8
 71
     3
 72
    13
 73
     9
 74
     0
 42
0.000000001
 43
0.00000001
 40
0.0
 40
0.0
 40
0.0
 40
0.0
 40
0.285382222588545
 40
0.5614757394279563
 40
0.6911223486387358
 40
0.8071138709285487
 40
0.9103648070958945
 40
1.0
 40
1.0
 40
1.0
 40
1.0
 10
7.778489836742307
 20
8.026113681724105
 30
0.0
 10
8.018839715869241
 20
8.275617289945947
 30
0.0
 10
8.491716494528227
 20
8.766503588488366
 30
0.0
 10
9.023596729596617
 20
9.416407574299463
 30
0.0
 10
9.398089346756477
 20
9.92706542480075
 30
0.0
 10
9.637348468678967
 20
10.27640554420862
 30
0.0
 10
9.836639890935738
 20
10.59435709775483
 30
0.0
 10
9.943057944328341
 20
10.80296106891746
 30
0.0
 10
9.992510970267766
 20
10.89990042523995
 30
0.0
  0
SPLINE
  5
E0
330
1F
100
AcDbEntity
  8
0
  6
Continuous
 62
     7
370
    15
100
AcDbSpline
210
0.0
220
0.0
230
1.0
 70
     8
 71
     3
 72
    13
 73
     9
 74
     0
 42
0.000000001
 43
0.00000001
 40
0.0
 40
0.0
 40
0.0
 40
0.0
 40
0.2883670401938201
 40
0.5845625050121057
 40
0.7237175279285732
 40
0.8381237754861129
 40
0.9315738781929429
 40
1.0
 40
1.0
 40
1.0
 40
1.0
 10
7.359792430402252
 20
5.04448063657521
 30
0.0
 10
7.211575453916362
 20
5.04196807693382
 30
0.0
 10
6.911117790649169
 20
5.036874748108946
 30
0.0
 10
6.542076434070226
 20
4.988229987803525
 30
0.0
 10
6.262104558451511
 20
4.951810511298126
 30
0.0
 10
6.085879274416544
 20
4.924965095676482
 30
0.0
 10
5.945202875627691
 20
4.906235492383843
 30
0.0
 10
5.862640292428156
 20
4.896389147581031
 30
0.0
 10
5.827740557203406
 20
4.892227034269735
 30
0.0
  0
SPLINE
  5
E5
330
1F
100
AcDbEntity
  8
0
  6
Continuous
 62
     7
370
    15
100
AcDbSpline
210
0.0
220
0.0
230
1.0
 70
     8
 71
     3
 72
    15
 73
    11
 74
     0
 42
0.000000001
 43
0.00000001
 40
0.0
 40
0.0
 40
0.0
 40
0.0
 40
0.0989515882675705
 40
0.2019950034957143
 40
0.309953907487118
 40
0.4232217878247913
 40
0.5469737853439829
 40
0.6835589261939994
 40
0.8345817810773061
 40
1.0
 40
1.0
 40
1.0
 40
1.0
 10
-12.99143907776297
 20
10.65883222158962
 30
0.0
 10
-12.95147806495797
 20
10.83526946597174
 30
0.0
 10
-12.86990357926695
 20
11.19543995357797
 30
0.0
 10
-12.67972035472522
 20
11.73040877628352
 30
0.0
 10
-12.42602834990315
 20
12.26649372895896
 30
0.0
 10
-12.11342987770787
 20
12.8145913080046
 30
0.0
 10
-11.72692858552796
 20
13.37794067297567
 30
0.0
 10
-11.26739889109769
 20
13.97304454315452
 30
0.0
 10
-10.72681359987101
 20
14.60039504737735
 30
0.0
 10
-10.32885528998789
 20
15.01985644042771
 30
0.0
 10
-10.12082428429515
 20
15.23912809094601
 30
0.0
  0
SPLINE
  5
E6
330
1F
100
AcDbEntity
  8
0
  6
Continuous
 62
     7
370
    15
100
AcDbSpline
210
0.0
220
0.0
230
1.0
 70
     8
 71
     3
 72
    13
 73
     9
 74
     0
 42
0.000000001
 43
0.00000001
 40
0.0
 40
0.0
 40
0.0
 40
0.0
 40
0.1764970553561895
 40
0.3817311580598137
 40
0.5051075735862399
 40
0.6474409577067046
 40
0.8140598156891854
 40
0.9999999999999999
 40
0.9999999999999999
 40
0.9999999999999999
 40
0.9999999999999999
 10
-13.14686463011648
 20
9.320269301320646
 30
0.0
 10
-13.14414096459765
 20
9.399577618796942
 30
0.0
 10
-13.13825016947604
 20
9.57110714269129
 30
0.0
 10
-13.12213127338607
 20
9.797897779591146
 30
0.0
 10
-13.091032371009
 20
10.00741564582373
 30
0.0
 10
-13.06744373347135
 20
10.20039333832882
 30
0.0
 10
-13.03136281173696
 20
10.42001850553754
 30
0.0
 10
-13.00522447630535
 20
10.57637144136027
 30
0.0
 10
-12.99143907776297
 20
10.65883222158962
 30
0.0
  0
SPLINE
  5
E7
330
1F
100
AcDbEntity
  8
0
  6
Continuous
 62
     7
370
    15
100
AcDbSpline
210
0.0
220
0.0
230
1.0
 70
     8
 71
     3
 72
     9
 73
     5
 74
     0
 42
0.000000001
 43
0.00000001
 40
0.0
 40
0.0
 40
0.0
 40
0.0
 40
0.5172992325888324
 40
1.0
 40
1.0
 40
1.0
 40
1.0
 10
-13.01364272809919
 20
8.203742884413828
 30
0.0
 10
-13.0516734166402
 20
8.394500043159226
 30
0.0
 10
-13.12519119154718
 20
8.763255971504131
 30
0.0
 10
-13.13980873208244
 20
9.138930781998143
 30
0.0
 10
-13.14686463011648
 20
9.320269301320646
 30
0.0
  0
SPLINE
  5
E8
330
1F
100
AcDbEntity
  8
0
  6
Continuous
 62
     7
370
    15
100
AcDbSpline
210
0.0
220
0.0
230
1.0
 70
     8
 71
     3
 72
    15
 73
    11
 74
     0
 42
0.000000001
 43
0.00000001
 40
0.0
 40
0.0
 40
0.0
 40
0.0
 40
0.1269320848232943
 40
0.2511494273975237
 40
0.3750118190897944
 40
0.4977314690657156
 40
0.6216395542616919
 40
0.7457910541184669
 40
0.87241057729385
 40
1.0
 40
1.0
 40
1.0
 40
1.0
 10
-11.65604810754203
 20
5.767685247526218
 30
0.0
 10
-11.73967991587927
 20
5.853317138906101
 30
0.0
 10
-11.90515486892488
 20
6.022749481540069
 30
0.0
 10
-12.13187675215332
 20
6.29447368689938
 30
0.0
 10
-12.33564711670399
 20
6.579063428149236
 30
0.0
 10
-12.51184622002402
 20
6.880898329031954
 30
0.0
 10
-12.67617035682127
 20
7.189706168700461
 30
0.0
 10
-12.81201307128141
 20
7.516214396562789
 30
0.0
 10
-12.92670795619946
 20
7.854339680270876
 30
0.0
 10
-12.98459085603172
 20
8.086979281485966
 30
0.0
 10
-13.01364272809919
 20
8.203742884413828
 30
0.0
  0
SPLINE
  5
E9
330
1F
100
AcDbEntity
  8
0
  6
Continuous
 62
     7
370
    15
100
AcDbSpline
210
0.0
220
0.0
230
1.0
 70
     8
 71
     3
 72
    15
 73
    11
 74
     0
 42
0.000000001
 43
0.00000001
 40
0.0
 40
0.0
 40
0.0
 40
0.0
 40
0.1086155187014308
 40
0.2201330017631892
 40
0.3335115052009454
 40
0.4533598156228688
 40
0.5776789121300049
 40
0.7105441209742528
 40
0.850492423435686
 40
1.0
 40
1.0
 40
1.0
 40
1.0
 10
-9.156551469693811
 20
4.517936928602107
 30
0.0
 10
-9.260485257710407
 20
4.521361258354888
 30
0.0
 10
-9.471129712704029
 20
4.528301408312455
 30
0.0
 10
-9.784352005261631
 20
4.593323067778104
 30
0.0
 10
-10.10077608766378
 20
4.687189361960771
 30
0.0
 10
-10.41233654954243
 20
4.829732842356401
 30
0.0
 10
-10.72715550909942
 20
5.005742860607142
 30
0.0
 10
-11.0398000124876
 20
5.221957995290968
 30
0.0
 10
-11.35236905174275
 20
5.478046417683993
 30
0.0
 10
-11.55261735696882
 20
5.669036489919675
 30
0.0
 10
-11.65604810754203
 20
5.767685247526218
 30
0.0
  0
SPLINE
  5
EA
330
1F
100
AcDbEntity
  8
0
  6
Continuous
 62
     7
370
    15
100
AcDbSpline
210
0.0
220
0.0
230
1.0
 70
     8
 71
     3
 72
    15
 73
    11
 74
     0
 42
0.000000001
 43
0.00000001
 40
0.0
 40
0.0
 40
0.0
 40
0.0
 40
0.145768666873428
 40
0.2836900029716833
 40
0.41548235471982
 40
0.5422861481930314
 40
0.6633577593022959
 40
0.7789472982863316
 40
0.8912619085815443
 40
1.0
 40
1.0
 40
1.0
 40
1.0
 10
-6.983765686792754
 20
5.285548840225546
 30
0.0
 10
-7.079302848758334
 20
5.224170597593985
 30
0.0
 10
-7.265234011766467
 20
5.104718357218736
 30
0.0
 10
-7.54883600300997
 20
4.948264597432121
 30
0.0
 10
-7.829034433596971
 20
4.817873380517038
 30
0.0
 10
-8.104610544155229
 20
4.710202567440376
 30
0.0
 10
-8.374235376296532
 20
4.623089622368073
 30
0.0
 10
-8.639431447953362
 20
4.562028773998405
 30
0.0
 10
-8.899707547138691
 20
4.526442006194767
 30
0.0
 10
-9.071865303455434
 20
4.520741209146171
 30
0.0
 10
-9.156551469693811
 20
4.517936928602107
 30
0.0
  0
SPLINE
  5
EB
330
1F
100
AcDbEntity
  8
0
  6
Continuous
 62
     7
370
    15
100
AcDbSpline
210
0.0
220
0.0
230
1.0
 70
     8
 71
     3
 72
    19
 73
    15
 74
     0
 42
0.000000001
 43
0.00000001
 40
0.0
 40
0.0
 40
0.0
 40
0.0
 40
0.0937710639781779
 40
0.1899768396548833
 40
0.2904343038897056
 40
0.3986180575677361
 40
0.4565459837978441
 40
0.5191983056499945
 40
0.5867970132363455
 40
0.6591134909245208
 40
0.7366147152640197
 40
0.8191179343705642
 40
0.9069589440804763
 40
0.9999999999999999
 40
0.9999999999999999
 40
0.9999999999999999
 40
0.9999999999999999
 10
-3.58660718535183
 20
9.71359110727646
 30
0.0
 10
-3.59576460960775
 20
9.531848152133103
 30
0.0
 10
-3.614317225369086
 20
9.163643390633233
 30
0.0
 10
-3.768850699995659
 20
8.618465700872399
 30
0.0
 10
-4.018547809533955
 20
8.081921477644755
 30
0.0
 10
-4.303671080973245
 20
7.649785346044601
 30
0.0
 10
-4.579144617749716
 20
7.302901377422424
 30
0.0
 10
-4.824679900570305
 20
7.033514645534027
 30
0.0
 10
-5.104246690801352
 20
6.758408748471088
 30
0.0
 10
-5.416900068534176
 20
6.476674263120508
 30
0.0
 10
-5.757870211397112
 20
6.183300804830025
 30
0.0
 10
-6.138263887929037
 20
5.890851359648535
 30
0.0
 10
-6.54540627841421
 20
5.583924181241224
 30
0.0
 10
-6.83487200451735
 20
5.386895366329165
 30
0.0
 10
-6.983765686792754
 20
5.285548840225546
 30
0.0
  0
SPLINE
  5
EC
330
1F
100
AcDbEntity
  8
0
  6
Continuous
 62
     7
370
    15
100
AcDbSpline
210
0.0
220
0.0
230
1.0
 70
     8
 71
     3
 72
     9
 73
     5
 74
     0
 42
0.000000001
 43
0.00000001
 40
0.0
 40
0.0
 40
0.0
 40
0.0
 40
0.4298780287845525
 40
1.0
 40
1.0
 40
1.0
 40
1.0
 10
-3.631014486024261
 20
10.32894941659442
 30
0.0
 10
-3.617398224068204
 20
10.24135011764637
 30
0.0
 10
-3.585723513931108
 20
10.03757301557921
 30
0.0
 10
-3.586286318246264
 20
9.831231142627805
 30
0.0
 10
-3.58660718535183
 20
9.713591107276459
 30
0.0
  0
SPLINE
  5
ED
330
1F
100
AcDbEntity
  8
0
  6
Continuous
 62
     7
370
    15
100
AcDbSpline
210
0.0
220
0.0
230
1.0
 70
     8
 71
     3
 72
    11
 73
     7
 74
     0
 42
0.000000001
 43
0.00000001
 40
0.0
 40
0.0
 40
0.0
 40
0.0
 40
0.2495826850803348
 40
0.497158546596308
 40
0.7462171979746328
 40
1.0
 40
1.0
 40
1.0
 40
1.0
 10
-4.04653994231629
 20
11.55649408518232
 30
0.0
 10
-3.996874657792645
 20
11.46014779782246
 30
0.0
 10
-3.897943433208212
 20
11.26822991626606
 30
0.0
 10
-3.786722444411182
 20
10.96360802312043
 30
0.0
 10
-3.691100894553033
 20
10.65195797872255
 30
0.0
 10
-3.651168343121302
 20
10.43729119573627
 30
0.0
 10
-3.631014486024261
 20
10.32894941659442
 30
0.0
  0
SPLINE
  5
EE
330
1F
100
AcDbEntity
  8
0
  6
Continuous
 62
     7
370
    15
100
AcDbSpline
210
0.0
220
0.0
230
1.0
 70
     8
 71
     3
 72
    15
 73
    11
 74
     0
 42
0.000000001
 43
0.00000001
 40
0.0
 40
0.0
 40
0.0
 40
0.0
 40
0.1004102037864083
 40
0.203025915661792
 40
0.3104524054442775
 40
0.4245742216769375
 40
0.5490430812607462
 40
0.6858136057398808
 40
0.8363883454786134
 40
0.9999999999999999
 40
0.9999999999999999
 40
0.9999999999999999
 40
0.9999999999999999
 10
-6.108307473536271
 20
13.19956421006224
 30
0.0
 10
-6.015846045479228
 20
13.19452180283974
 30
0.0
 10
-5.828892275973795
 20
13.18432623202241
 30
0.0
 10
-5.551922432080022
 20
13.10466720015836
 30
0.0
 10
-5.284353811989085
 20
12.97079689479557
 30
0.0
 10
-5.020243744447398
 20
12.79103491567652
 30
0.0
 10
-4.767257947804236
 20
12.55457868288956
 30
0.0
 10
-4.515475995721765
 20
12.27087043437501
 30
0.0
 10
-4.27273889073861
 20
11.93350047365382
 30
0.0
 10
-4.123996902001986
 20
11.68559180573656
 30
0.0
 10
-4.046539942316289
 20
11.55649408518232
 30
0.0
  0
SPLINE
  5
EF
330
1F
100
AcDbEntity
  8
0
  6
Continuous
 62
     7
370
    15
100
AcDbSpline
210
0.0
220
0.0
230
1.0
 70
     8
 71
     3
 72
    11
 73
     7
 74
     0
 42
0.000000001
 43
0.00000001
 40
0.0
 40
0.0
 40
0.0
 40
0.0
 40
0.2947210349707566
 40
0.5547016091965479
 40
0.7889349757450365
 40
0.9999999999999999
 40
0.9999999999999999
 40
0.9999999999999999
 40
0.9999999999999999
 10
-7.576920345774501
 20
12.69522415242536
 30
0.0
 10
-7.443246332914051
 20
12.77260768632075
 30
0.0
 10
-7.191655230674571
 20
12.91825311261801
 30
0.0
 10
-6.808696437826817
 20
13.07444290846783
 30
0.0
 10
-6.452164991195215
 20
13.17872494470256
 30
0.0
 10
-6.218880813914294
 20
13.19286298335202
 30
0.0
 10
-6.10830747353627
 20
13.19956421006224
 30
0.0
  0
SPLINE
  5
F3
330
1F
100
AcDbEntity
  8
0
  6
Continuous
 62
     7
370
    15
100
AcDbSpline
210
0.0
220
0.0
230
1.0
 70
     8
 71
     3
 72
    15
 73
    11
 74
     0
 42
0.000000001
 43
0.00000001
 40
0.0
 40
0.0
 40
0.0
 40
0.0
 40
0.1250897338757305
 40
0.2481376126016219
 40
0.3690798848974584
 40
0.4913236935890057
 40
0.6130446766888316
 40
0.738492672519722
 40
0.8668075702440756
 40
1.0
 40
1.0
 40
1.0
 40
1.0
 10
-6.612647531173157
 20
9.516930204298552
 30
0.0
 10
-6.670540614436935
 20
9.62412647854152
 30
0.0
 10
-6.78538178502806
 20
9.836769249025503
 30
0.0
 10
-6.997880187248304
 20
10.12733761559361
 30
0.0
 10
-7.230605488766284
 20
10.39766090921995
 30
0.0
 10
-7.490221214610834
 20
10.64084562825367
 30
0.0
 10
-7.776300677523445
 20
10.85949891678069
 30
0.0
 10
-8.087995952632681
 20
11.05060245012953
 30
0.0
 10
-8.421619650094044
 20
11.22674631301604
 30
0.0
 10
-8.660561906984922
 20
11.31492268213233
 30
0.0
 10
-8.78226136402618
 20
11.35983318220441
 30
0.0
  0
SPLINE
  5
F5
330
1F
100
AcDbEntity
  8
0
  6
Continuous
 62
     7
370
    15
100
AcDbSpline
210
0.0
220
0.0
230
1.0
 70
     8
 71
     3
 72
    11
 73
     7
 74
     0
 42
0.000000001
 43
0.00000001
 40
0.0
 40
0.0
 40
0.0
 40
0.0
 40
0.2097423981169299
 40
0.4454900828479904
 40
0.7095020130467133
 40
1.0
 40
1.0
 40
1.0
 40
1.0
 10
-6.174918424544915
 20
7.829452778746198
 30
0.0
 10
-6.178584546434219
 20
7.914188190877013
 30
0.0
 10
-6.186371340896665
 20
8.094165086865733
 30
0.0
 10
-6.23370128358401
 20
8.377567287679444
 30
0.0
 10
-6.310363684246184
 20
8.687789206525416
 30
0.0
 10
-6.379675426318659
 20
8.900929629864466
 30
0.0
 10
-6.415986628195252
 20
9.012590146661665
 30
0.0
  0
SPLINE
  5
F6
330
1F
100
AcDbEntity
  8
0
  6
Continuous
 62
     7
370
    15
100
AcDbSpline
210
0.0
220
0.0
230
1.0
 70
     8
 71
     3
 72
    17
 73
    13
 74
     0
 42
0.000000001
 43
0.00000001
 40
0.0
 40
0.0
 40
0.0
 40
0.0
 40
0.1066464299183879
 40
0.2076261114479899
 40
0.3042716328700744
 40
0.403859071859649
 40
0.5003746496647536
 40
0.5883175486944612
 40
0.6676314850856219
 40
0.7423837362412712
 40
0.8812699842297459
 40
1.0
 40
1.0
 40
1.0
 40
1.0
 10
-7.161394889482475
 20
6.601908110158303
 30
0.0
 10
-7.097600220131453
 20
6.604687246921288
 30
0.0
 10
-6.973400665222777
 20
6.610097848661283
 30
0.0
 10
-6.797315629209076
 20
6.659810367274345
 30
0.0
 10
-6.635760346739939
 20
6.736183649632818
 30
0.0
 10
-6.5002220910078
 20
6.848596551711903
 30
0.0
 10
-6.384604354278554
 20
6.972922311617284
 30
0.0
 10
-6.293703093219047
 20
7.102454126713765
 30
0.0
 10
-6.235021737500182
 20
7.235579014993667
 30
0.0
 10
-6.195856460101375
 20
7.406640634230915
 30
0.0
 10
-6.179470107758573
 20
7.604894984315477
 30
0.0
 10
-6.176354393090731
 20
7.758609111824709
 30
0.0
 10
-6.174918424544915
 20
7.829452778746198
 30
0.0
  0
SPLINE
  5
F7
330
1F
100
AcDbEntity
  8
0
  6
Continuous
 62
     7
370
    15
100
AcDbSpline
210
0.0
220
0.0
230
1.0
 70
     8
 71
     3
 72
    15
 73
    11
 74
     0
 42
0.000000001
 43
0.00000001
 40
0.0
 40
0.0
 40
0.0
 40
0.0
 40
0.1431776986467281
 40
0.2694032755497925
 40
0.3749607565611044
 40
0.4629645352020085
 40
0.6125896365143135
 40
0.7472286412502035
 40
0.8742179758724902
 40
1.0
 40
1.0
 40
1.0
 40
1.0
 10
-9.134347819357593
 20
7.807249128409984
 30
0.0
 10
-9.055643050599443
 20
7.72523760060995
 30
0.0
 10
-8.907552092962597
 20
7.570924642439792
 30
0.0
 10
-8.692655423064323
 20
7.364991126677146
 30
0.0
 10
-8.509141684246943
 20
7.189454508545378
 30
0.0
 10
-8.298592781188644
 20
7.016311573970046
 30
0.0
 10
-8.054418891996585
 20
6.848514790457783
 30
0.0
 10
-7.760839911511957
 20
6.702624105344434
 30
0.0
 10
-7.461908038573217
 20
6.620232603321695
 30
0.0
 10
-7.261246466246266
 20
6.607996793935696
 30
0.0
 10
-7.161394889482475
 20
6.601908110158303
 30
0.0
  0
SPLINE
  5
F8
330
1F
100
AcDbEntity
  8
0
  6
Continuous
 62
     7
370
    15
100
AcDbSpline
210
0.0
220
0.0
230
1.0
 70
     8
 71
     3
 72
    15
 73
    11
 74
     0
 42
0.000000001
 43
0.00000001
 40
0.0
 40
0.0
 40
0.0
 40
0.0
 40
0.1416398469400095
 40
0.2782983634127231
 40
0.4086084497132363
 40
0.5339533977122942
 40
0.6550217483503431
 40
0.7729122997299511
 40
0.8873340067828511
 40
1.0
 40
1.0
 40
1.0
 40
1.0
 10
-10.29528153693685
 20
10.17669581428894
 30
0.0
 10
-10.26743858944353
 20
10.05357386007946
 30
0.0
 10
-10.21273190281982
 20
9.811660026529587
 30
0.0
 10
-10.10244855225911
 20
9.464519690505508
 30
0.0
 10
-9.984704868945677
 20
9.135198200843964
 30
0.0
 10
-9.84255427052925
 20
8.830840128423583
 30
0.0
 10
-9.69126388152052
 20
8.543555219655971
 30
0.0
 10
-9.523325905167898
 20
8.276938084602113
 30
0.0
 10
-9.339062337241113
 20
8.030365997658729
 30
0.0
 10
-9.202233363872464
 20
7.881237091335127
 30
0.0
 10
-9.134347819357593
 20
7.807249128409984
 30
0.0
  0
SPLINE
  5
F9
330
1F
100
AcDbEntity
  8
0
  6
Continuous
 62
     7
370
    15
100
AcDbSpline
210
0.0
220
0.0
230
1.0
 70
     8
 71
     3
 72
    13
 73
     9
 74
     0
 42
0.000000001
 43
0.00000001
 40
0.0
 40
0.0
 40
0.0
 40
0.0
 40
0.2482147043306595
 40
0.444872627187868
 40
0.5436657719742614
 40
0.6680657971653238
 40
0.8196986069683909
 40
1.0
 40
1.0
 40
1.0
 40
1.0
 10
-10.40629978861792
 20
11.20440762985091
 30
0.0
 10
-10.40527027715381
 20
11.11871779395694
 30
0.0
 10
-10.40342509448829
 20
10.96513679431294
 30
0.0
 10
-10.38839069254436
 20
10.77800565728772
 30
0.0
 10
-10.37168610124676
 20
10.63398746070525
 30
0.0
 10
-10.34565925999963
 20
10.50713918865335
 30
0.0
 10
-10.32743936625713
 20
10.35058404948079
 30
0.0
 10
-10.30660074526619
 20
10.23790259353254
 30
0.0
 10
-10.29528153693685
 20
10.17669581428894
 30
0.0
  0
SPLINE
  5
FA
330
1F
100
AcDbEntity
  8
0
  6
Continuous
 62
     7
370
    15
100
AcDbSpline
210
0.0
220
0.0
230
1.0
 70
     8
 71
     3
 72
    15
 73
    11
 74
     0
 42
0.000000001
 43
0.00000001
 40
0.0
 40
0.0
 40
0.0
 40
0.0
 40
0.1500947451295108
 40
0.2909719361617503
 40
0.42407283558487
 40
0.5490722859592221
 40
0.6683605242029405
 40
0.781846380310027
 40
0.8923595412474928
 40
0.9999999999999999
 40
0.9999999999999999
 40
0.9999999999999999
 40
0.9999999999999999
 10
-8.147871354420033
 20
15.87669005060018
 30
0.0
 10
-8.327540122343189
 20
15.68054822956605
 30
0.0
 10
-8.675843916891674
 20
15.30030996486631
 30
0.0
 10
-9.132587282149673
 20
14.70286085708405
 30
0.0
 10
-9.525868403689747
 20
14.11489894040423
 30
0.0
 10
-9.846425464558036
 20
13.52722580096048
 30
0.0
 10
-10.09671236446765
 20
12.94355573225359
 30
0.0
 10
-10.27134923173425
 20
12.36026260857328
 30
0.0
 10
-10.38642090156569
 20
11.78200581986112
 30
0.0
 10
-10.39973192055838
 20
11.39524269488507
 30
0.0
 10
-10.40629978861792
 20
11.20440762985091
 30
0.0
  0
SPLINE
  5
103
330
1F
100
AcDbEntity
  8
0
  6
Continuous
 62
     7
370
    15
100
AcDbSpline
210
0.0
220
0.0
230
1.0
 70
     8
 71
     3
 72
    19
 73
    15
 74
     0
 42
0.000000001
 43
0.00000001
 40
0.0
 40
0.0
 40
0.0
 40
0.0
 40
0.099759058664459
 40
0.1991303769295416
 40
0.2993610604013254
 40
0.3997448179852731
 40
0.4534599777236386
 40
0.5131039556565581
 40
0.5787060122229534
 40
0.650266648498819
 40
0.7284343478151158
 40
0.8132168390203175
 40
0.903297922037257
 40
1.0
 40
1.0
 40
1.0
 40
1.0
 10
-18.12999815557277
 20
4.673362480955613
 30
0.0
 10
-18.2840369303832
 20
4.713772037313627
 30
0.0
 10
-18.59151576689604
 20
4.79443408742571
 30
0.0
 10
-19.05968204754054
 20
4.89253622684141
 30
0.0
 10
-19.5351402300793
 20
4.952207865354218
 30
0.0
 10
-19.93962999015002
 20
4.98829652309652
 30
0.0
 10
-20.28049840323975
 20
5.004371000679868
 30
0.0
 10
-20.56604653708607
 20
5.013049727720764
 30
0.0
 10
-20.88006893790365
 20
5.022596265702883
 30
0.0
 10
-21.22365785474637
 20
5.032833765892915
 30
0.0
 10
-21.59797665777688
 20
5.038999619594452
 30
0.0
 10
-22.00189347098661
 20
5.041003296173971
 30
0.0
 10
-22.43538403524478
 20
5.045448446400419
 30
0.0
 10
-22.73355370762054
 20
5.044810774474169
 30
0.0
 10
-22.88792322761888
 20
5.04448063657521
 30
0.0
  0
SPLINE
  5
10B
330
1F
100
AcDbEntity
  8
0
  6
Continuous
 62
     7
370
    15
100
AcDbSpline
210
0.0
220
0.0
230
1.0
 70
     8
 71
     3
 72
    19
 73
    15
 74
     0
 42
0.000000001
 43
0.00000001
 40
0.0
 40
0.0
 40
0.0
 40
0.0
 40
0.0881229649572799
 40
0.1769043175699974
 40
0.2694186368200802
 40
0.3644732215113105
 40
0.416874620836241
 40
0.4765800429215011
 40
0.5443819566321809
 40
0.6199769921277105
 40
0.703403975705749
 40
0.7937590687059908
 40
0.892929593104676
 40
1.0
 40
1.0
 40
1.0
 40
1.0
 10
-16.96589248794549
 20
14.01158342235811
 30
0.0
 10
-16.98499249652201
 20
13.87247699164782
 30
0.0
 10
-17.02333521438729
 20
13.59322483295873
 30
0.0
 10
-17.13887505972813
 20
13.17894385019603
 30
0.0
 10
-17.2970985086231
 20
12.7679399633381
 30
0.0
 10
-17.46854509555354
 20
12.42579336225651
 30
0.0
 10
-17.63719268580906
 20
12.14237419705167
 30
0.0
 10
-17.78920291609122
 20
11.89957288123331
 30
0.0
 10
-17.97456709592797
 20
11.63457078757975
 30
0.0
 10
-18.18705812734542
 20
11.34264799780601
 30
0.0
 10
-18.42781294639925
 20
11.0269840190121
 30
0.0
 10
-18.69605230016297
 20
10.68516218918494
 30
0.0
 10
-18.99353274688799
 20
10.3185082316139
 30
0.0
 10
-19.20391509267579
 20
10.06647248882615
 30
0.0
 10
-19.31313552348823
 20
9.93562761063861
 30
0.0
  0
SPLINE
  5
10C
330
1F
100
AcDbEntity
  8
0
  6
Continuous
 62
     7
370
    15
100
AcDbSpline
210
0.0
220
0.0
230
1.0
 70
     8
 71
     3
 72
     9
 73
     5
 74
     0
 42
0.000000001
 43
0.00000001
 40
0.0
 40
0.0
 40
0.0
 40
0.0
 40
0.5953686334369076
 40
1.0
 40
1.0
 40
1.0
 40
1.0
 10
-16.94368883760928
 20
14.23044797567223
 30
0.0
 10
-16.94962292698737
 20
14.18716055940948
 30
0.0
 10
-16.95959001131937
 20
14.11445364501787
 30
0.0
 10
-16.96407693705387
 20
14.04121718945482
 30
0.0
 10
-16.96589248794549
 20
14.01158342235811
 30
0.0
  0
SPLINE
  5
10E
330
1F
100
AcDbEntity
  8
0
  6
Continuous
 62
     7
370
    15
100
AcDbSpline
210
0.0
220
0.0
230
1.0
 70
     8
 71
     3
 72
    15
 73
    11
 74
     0
 42
0.000000001
 43
0.00000001
 40
0.0
 40
0.0
 40
0.0
 40
0.0
 40
0.1315760461996121
 40
0.2575988610555996
 40
0.3800710229019763
 40
0.5021546475657432
 40
0.6232162027254678
 40
0.7449229194250983
 40
0.8700810735393905
 40
1.0
 40
1.0
 40
1.0
 40
1.0
 10
-18.2156408068696
 20
17.27869197182977
 30
0.0
 10
-18.11413713688323
 20
17.18777274552851
 30
0.0
 10
-17.9154138089168
 20
17.00977158331294
 30
0.0
 10
-17.65810808399846
 20
16.71109558228853
 30
0.0
 10
-17.43532272298207
 20
16.39821491058048
 30
0.0
 10
-17.25483885093227
 20
16.06467126108333
 30
0.0
 10
-17.11371602680246
 20
15.71351915731946
 30
0.0
 10
-17.01621384939605
 20
15.34483322569446
 30
0.0
 10
-16.9531563773413
 20
14.95899910530457
 30
0.0
 10
-16.94688370866178
 20
14.69486350257675
 30
0.0
 10
-16.94368883760927
 20
14.56033078066743
 30
0.0
  0
SPLINE
  5
10F
330
1F
100
AcDbEntity
  8
0
  6
Continuous
 62
     7
370
    15
100
AcDbSpline
210
0.0
220
0.0
230
1.0
 70
     8
 71
     3
 72
     9
 73
     5
 74
     0
 42
0.000000001
 43
0.00000001
 40
0.0
 40
0.0
 40
0.0
 40
0.0
 40
0.436631910058457
 40
1.0
 40
1.0
 40
1.0
 40
1.0
 10
-18.58993091253723
 20
17.56416747615254
 30
0.0
 10
-18.53182073109641
 20
17.52745490462157
 30
0.0
 10
-18.39873338657997
 20
17.44337362085546
 30
0.0
 10
-18.28161920157878
 20
17.33803588875947
 30
0.0
 10
-18.2156408068696
 20
17.27869197182977
 30
0.0
  0
SPLINE
  5
110
330
1F
100
AcDbEntity
  8
0
  6
Continuous
 62
     7
370
    15
100
AcDbSpline
210
0.0
220
0.0
230
1.0
 70
     8
 71
     3
 72
    11
 73
     7
 74
     0
 42
0.000000001
 43
0.00000001
 40
0.0
 40
0.0
 40
0.0
 40
0.0
 40
0.3950705407435638
 40
0.6943297572059249
 40
0.8981488418417489
 40
0.9999999999999999
 40
0.9999999999999999
 40
0.9999999999999999
 40
0.9999999999999999
 10
-19.00545636882926
 20
17.76082837913044
 30
0.0
 10
-18.95015692705396
 20
17.73612413957789
 30
0.0
 10
-18.85296909849758
 20
17.69270685865837
 30
0.0
 10
-18.73107531039457
 20
17.62849737423706
 30
0.0
 10
-18.6445125264431
 20
17.59463023266554
 30
0.0
 10
-18.60357240615565
 20
17.57178098313473
 30
0.0
 10
-18.58993091253723
 20
17.56416747615254
 30
0.0
  0
SPLINE
  5
111
330
1F
100
AcDbEntity
  8
0
  6
Continuous
 62
     7
370
    15
100
AcDbSpline
210
0.0
220
0.0
230
1.0
 70
     8
 71
     3
 72
    11
 73
     7
 74
     0
 42
0.000000001
 43
0.00000001
 40
0.0
 40
0.0
 40
0.0
 40
0.0
 40
0.2118727754336748
 40
0.4467697853149382
 40
0.708520126361679
 40
1.0
 40
1.0
 40
1.0
 40
1.0
 10
-20.42966194039505
 20
18.09071118412564
 30
0.0
 10
-20.3257294319659
 20
18.08718828735737
 30
0.0
 10
-20.10657005963459
 20
18.07975966029745
 30
0.0
 10
-19.76568488363772
 20
18.00830131432272
 30
0.0
 10
-19.39222763797779
 20
17.90916989576917
 30
0.0
 10
-19.13891759087067
 20
17.81201584228836
 30
0.0
 10
-19.00545636882926
 20
17.76082837913044
 30
0.0
  0
SPLINE
  5
112
330
1F
100
AcDbEntity
  8
0
  6
Continuous
 62
     7
370
    15
100
AcDbSpline
210
0.0
220
0.0
230
1.0
 70
     8
 71
     3
 72
    15
 73
    11
 74
     0
 42
0.000000001
 43
0.00000001
 40
0.0
 40
0.0
 40
0.0
 40
0.0
 40
0.175665459664274
 40
0.3360987199863401
 40
0.4815505856417089
 40
0.611948129027631
 40
0.7292386590351423
 40
0.8320282883036186
 40
0.9213610435599816
 40
0.9999999999999999
 40
0.9999999999999999
 40
0.9999999999999999
 40
0.9999999999999999
 10
-23.6745668395305
 20
16.62209831188741
 30
0.0
 10
-23.49883513792832
 20
16.73865204214261
 30
0.0
 10
-23.16260967799787
 20
16.96165296459644
 30
0.0
 10
-22.6676574904708
 20
17.26060815455013
 30
0.0
 10
-22.20765943495122
 20
17.51121487102399
 30
0.0
 10
-21.78447307513501
 20
17.72025693723794
 30
0.0
 10
-21.39628669555392
 20
17.88383801696252
 30
0.0
 10
-21.0429381457065
 20
17.99819852120359
 30
0.0
 10
-20.72594127672732
 20
18.07637578948711
 30
0.0
 10
-20.52413919071021
 20
18.08613992821425
 30
0.0
 10
-20.42966194039505
 20
18.09071118412564
 30
0.0
  0
SPLINE
  5
113
330
1F
100
AcDbEntity
  8
0
  6
Continuous
 62
     7
370
    15
100
AcDbSpline
210
0.0
220
0.0
230
1.0
 70
     8
 71
     3
 72
    11
 73
     7
 74
     0
 42
0.000000001
 43
0.00000001
 40
0.0
 40
0.0
 40
0.0
 40
0.0
 40
0.1474624866051749
 40
0.3650514488409756
 40
0.6467922873704794
 40
0.9999999999999999
 40
0.9999999999999999
 40
0.9999999999999999
 40
0.9999999999999999
 10
-24.17890689716739
 20
16.27001185655599
 30
0.0
 10
-24.15457394676609
 20
16.28796537262254
 30
0.0
 10
-24.09433639752178
 20
16.33241028334369
 30
0.0
 10
-23.98808623597375
 20
16.41183681007801
 30
0.0
 10
-23.84337235859474
 20
16.51000880319161
 30
0.0
 10
-23.73490487861687
 20
16.58203290884637
 30
0.0
 10
-23.67456683953051
 20
16.62209831188741
 30
0.0
  0
SPLINE
  5
114
330
1F
100
AcDbEntity
  8
0
  6
Continuous
 62
     7
370
    15
100
AcDbSpline
210
0.0
220
0.0
230
1.0
 70
     8
 71
     3
 72
     9
 73
     5
 74
     0
 42
0.000000001
 43
0.00000001
 40
0.0
 40
0.0
 40
0.0
 40
0.0
 40
0.4960211127746554
 40
1.0
 40
1.0
 40
1.0
 40
1.0
 10
-24.64201160417988
 20
15.87669005060019
 30
0.0
 10
-24.56610285619371
 20
15.94250039695747
 30
0.0
 10
-24.41306753968965
 20
16.07517689935302
 30
0.0
 10
-24.25737343752425
 20
16.20472323730888
 30
0.0
 10
-24.17890689716739
 20
16.27001185655599
 30
0.0
  0
SPLINE
  5
118
330
1F
100
AcDbEntity
  8
0
  6
Continuous
 62
     7
370
    15
100
AcDbSpline
210
0.0
220
0.0
230
1.0
 70
     8
 71
     3
 72
    11
 73
     7
 74
     0
 42
0.000000001
 43
0.00000001
 40
0.0
 40
0.0
 40
0.0
 40
0.0
 40
0.2259691491893702
 40
0.5027845108841239
 40
0.7760508109024985
 40
1.0
 40
1.0
 40
1.0
 40
1.0
 10
-22.99576952925193
 20
15.65782549728607
 30
0.0
 10
-23.05399430737901
 20
15.65550856283289
 30
0.0
 10
-23.18354525137727
 20
15.65035335133622
 30
0.0
 10
-23.38184907389452
 20
15.62279566731225
 30
0.0
 10
-23.57958934816498
 20
15.59677890350747
 30
0.0
 10
-23.70630697318652
 20
15.57763392333729
 30
0.0
 10
-23.76338144087537
 20
15.5690108959412
 30
0.0
  0
SPLINE
  5
119
330
1F
100
AcDbEntity
  8
0
  6
Continuous
 62
     7
370
    15
100
AcDbSpline
210
0.0
220
0.0
230
1.0
 70
     8
 71
     3
 72
     9
 73
     5
 74
     0
 42
0.000000001
 43
0.00000001
 40
0.0
 40
0.0
 40
0.0
 40
0.0
 40
0.5879173912103944
 40
1.0
 40
1.0
 40
1.0
 40
1.0
 10
-22.53583677228747
 20
15.61341819661363
 30
0.0
 10
-22.62552162346443
 20
15.6271372769525
 30
0.0
 10
-22.77806831202609
 20
15.6504723246037
 30
0.0
 10
-22.93223862463439
 20
15.65567964932861
 30
0.0
 10
-22.99576952925192
 20
15.65782549728606
 30
0.0
  0
SPLINE
  5
11A
330
1F
100
AcDbEntity
  8
0
  6
Continuous
 62
     7
370
    15
100
AcDbSpline
210
0.0
220
0.0
230
1.0
 70
     8
 71
     3
 72
    15
 73
    11
 74
     0
 42
0.000000001
 43
0.00000001
 40
0.0
 40
0.0
 40
0.0
 40
0.0
 40
0.1339098648161375
 40
0.2599101398385866
 40
0.3792299136601551
 40
0.4960336489048066
 40
0.6131019319918536
 40
0.7342229491183351
 40
0.8628299835042393
 40
0.9999999999999999
 40
0.9999999999999999
 40
0.9999999999999999
 40
0.9999999999999999
 10
-19.86188288179755
 20
13.31058246174332
 30
0.0
 10
-19.90880232560379
 20
13.47310493870707
 30
0.0
 10
-19.99986984492039
 20
13.78855025539499
 30
0.0
 10
-20.21336577988544
 20
14.21895787000515
 30
0.0
 10
-20.47055991250064
 20
14.598571871112
 30
0.0
 10
-20.78723983731477
 20
14.9151711810482
 30
0.0
 10
-21.15077050596123
 20
15.17946473528619
 30
0.0
 10
-21.56620712744159
 20
15.38704945637887
 30
0.0
 10
-22.03286093386685
 20
15.53710187678781
 30
0.0
 10
-22.36461526544746
 20
15.58743882687275
 30
0.0
 10
-22.53583677228747
 20
15.61341819661363
 30
0.0
  0
SPLINE
  5
11B
330
1F
100
AcDbEntity
  8
0
  6
Continuous
 62
     7
370
    15
100
AcDbSpline
210
0.0
220
0.0
230
1.0
 70
     8
 71
     3
 72
    11
 73
     7
 74
     0
 42
0.000000001
 43
0.00000001
 40
0.0
 40
0.0
 40
0.0
 40
0.0
 40
0.2490719053800376
 40
0.5290475497331741
 40
0.7955496106715539
 40
1.0
 40
1.0
 40
1.0
 40
1.0
 10
-19.77306828045269
 20
12.65398880180095
 30
0.0
 10
-19.77520282000476
 20
12.7090677154618
 30
0.0
 10
-19.77973674332343
 20
12.82605949046659
 30
0.0
 10
-19.80766925618476
 20
12.99998092519415
 30
0.0
 10
-19.8330791462527
 20
13.16402591532612
 30
0.0
 10
-19.85316373730922
 20
13.26621850409164
 30
0.0
 10
-19.86188288179756
 20
13.31058246174332
 30
0.0
  0
SPLINE
  5
11C
330
1F
100
AcDbEntity
  8
0
  6
Continuous
 62
     7
370
    15
100
AcDbSpline
210
0.0
220
0.0
230
1.0
 70
     8
 71
     3
 72
    11
 73
     7
 74
     0
 42
0.000000001
 43
0.00000001
 40
0.0
 40
0.0
 40
0.0
 40
0.0
 40
0.2857343757100673
 40
0.5460927255956292
 40
0.7832328235172065
 40
1.0
 40
1.0
 40
1.0
 40
1.0
 10
-20.25520468775337
 20
10.89990042523996
 30
0.0
 10
-20.18067269017254
 20
11.05809813047898
 30
0.0
 10
-20.03822787021744
 20
11.36044402716106
 30
0.0
 10
-19.89194811271964
 20
11.81698386826231
 30
0.0
 10
-19.78995252957377
 20
12.24347285674588
 30
0.0
 10
-19.77852540052663
 20
12.52130686916875
 30
0.0
 10
-19.7730682804527
 20
12.65398880180095
 30
0.0
  0
SPLINE
  5
11D
330
1F
100
AcDbEntity
  8
0
  6
Continuous
 62
     7
370
    15
100
AcDbSpline
210
0.0
220
0.0
230
1.0
 70
     8
 71
     3
 72
    13
 73
     9
 74
     0
 42
0.000000001
 43
0.00000001
 40
0.0
 40
0.0
 40
0.0
 40
0.0
 40
0.2853822225885451
 40
0.561475739427957
 40
0.6911223486387365
 40
0.807113870928549
 40
0.9103648070958943
 40
0.9999999999999999
 40
0.9999999999999999
 40
0.9999999999999999
 40
0.9999999999999999
 10
-22.46922582127882
 20
8.026113681724105
 30
0.0
 10
-22.22887594215189
 20
8.275617289945945
 30
0.0
 10
-21.75599916349291
 20
8.766503588488366
 30
0.0
 10
-21.2241189284245
 20
9.416407574299464
 30
0.0
 10
-20.84962631126466
 20
9.927065424800752
 30
0.0
 10
-20.61036718934216
 20
10.27640554420862
 30
0.0
 10
-20.41107576708539
 20
10.59435709775483
 30
0.0
 10
-20.30465771369279
 20
10.80296106891746
 30
0.0
 10
-20.25520468775337
 20
10.89990042523995
 30
0.0
  0
SPLINE
  5
122
330
1F
100
AcDbEntity
  8
0
  6
Continuous
 62
     7
370
    15
100
AcDbSpline
210
0.0
220
0.0
230
1.0
 70
     8
 71
     3
 72
    13
 73
     9
 74
     0
 42
0.000000001
 43
0.00000001
 40
0.0
 40
0.0
 40
0.0
 40
0.0
 40
0.2883670401938178
 40
0.5845625050121056
 40
0.723717527928571
 40
0.8381237754861129
 40
0.9315738781929406
 40
1.0
 40
1.0
 40
1.0
 40
1.0
 10
-22.88792322761888
 20
5.04448063657521
 30
0.0
 10
-23.03614020410477
 20
5.041968076933819
 30
0.0
 10
-23.33659786737196
 20
5.036874748108945
 30
0.0
 10
-23.70563922395091
 20
4.988229987803528
 30
0.0
 10
-23.98561109956962
 20
4.951810511298124
 30
0.0
 10
-24.16183638360459
 20
4.924965095676487
 30
0.0
 10
-24.30251278239344
 20
4.90623549238384
 30
0.0
 10
-24.38507536559297
 20
4.896389147581029
 30
0.0
 10
-24.41997510081773
 20
4.892227034269735
 30
0.0
  0
CIRCLE
  5
123
330
1F
100
AcDbEntity
  8
0
  6
Continuous
 62
     7
370
    15
100
AcDbCircle
 10
0.0
 20
24.0
 30
0.0
 40
2.5
  0
LINE
  5
12C
330
1F
100
AcDbEntity
  8
0
  6
Continuous
 62
     7
370
    15
100
AcDbLine
 10
-9.7465341786
 20
-23.0756922741
 30
0.0
 11
-9.7465341786
 21
-17.0902225335
 31
0.0
  0
LINE
  5
12D
330
1F
100
AcDbEntity
  8
0
  6
Continuous
 62
     7
370
    15
100
AcDbLine
 10
-6.7014621325
 20
-21.1249429945
 30
0.0
 11
-9.7465341786
 21
-23.0756922741
 31
0.0
  0
LINE
  5
12E
330
1F
100
AcDbEntity
  8
0
  6
Continuous
 62
     7
370
    15
100
AcDbLine
 10
-6.7014621325
 20
-16.0593387678
 30
0.0
 11
-6.7014621325
 21
-21.1249429945
 31
0.0
  0
LINE
  5
12F
330
1F
100
AcDbEntity
  8
0
  6
Continuous
 62
     7
370
    15
100
AcDbLine
 10
-6.7426974831
 20
-12.5289583644
 30
0.0
 11
-6.7014621325
 21
-16.0593387678
 31
0.0
  0
LINE
  5
130
330
1F
100
AcDbEntity
  8
0
  6
Continuous
 62
     7
370
    15
100
AcDbLine
 10
-6.7871047838
 20
-10.6638517361
 30
0.0
 11
-6.7426974831
 21
-12.5289583644
 31
0.0
  0
LINE
  5
131
330
1F
100
AcDbEntity
  8
0
  6
Continuous
 62
     7
370
    15
100
AcDbLine
 10
-11.0628934486
 20
-11.7391428024
 30
0.0
 11
-10.0098060326
 21
-10.9493272405
 31
0.0
  0
LINE
  5
132
330
1F
100
AcDbEntity
  8
0
  6
Continuous
 62
     7
370
    15
100
AcDbLine
 10
-11.4562152545
 20
-12.0690256074
 30
0.0
 11
-11.0628934486
 21
-11.7391428024
 31
0.0
  0
LINE
  5
133
330
1F
100
AcDbEntity
  8
0
  6
Continuous
 62
     7
370
    15
100
AcDbLine
 10
-11.7638944092
 20
-12.3322974614
 30
0.0
 11
-11.4562152545
 21
-12.0690256074
 31
0.0
  0
LINE
  5
134
330
1F
100
AcDbEntity
  8
0
  6
Continuous
 62
     7
370
    15
100
AcDbLine
 10
-11.3927762536
 20
-12.7256192674
 30
0.0
 11
-11.7638944092
 21
-12.3322974614
 31
0.0
  0
LINE
  5
135
330
1F
100
AcDbEntity
  8
0
  6
Continuous
 62
     7
370
    15
100
AcDbLine
 10
-17.4480288952
 20
-22.0670121588
 30
0.0
 11
-18.1299981556
 21
-22.9202667217
 31
0.0
  0
LINE
  5
136
330
1F
100
AcDbEntity
  8
0
  6
Continuous
 62
     7
370
    15
100
AcDbLine
 10
-15.6749088184
 20
-19.830787375
 30
0.0
 11
-17.4480288952
 21
-22.0670121588
 31
0.0
  0
LINE
  5
137
330
1F
100
AcDbEntity
  8
0
  6
Continuous
 62
     7
370
    15
100
AcDbLine
 10
-17.1435216906
 20
-19.8751946756
 30
0.0
 11
-15.6749088184
 21
-19.830787375
 31
0.0
  0
LINE
  5
138
330
1F
100
AcDbEntity
  8
0
  6
Continuous
 62
     7
370
    15
100
AcDbLine
 10
-18.6343382132
 20
-19.9164300262
 30
0.0
 11
-17.1435216906
 21
-19.8751946756
 31
0.0
  0
LINE
  5
139
330
1F
100
AcDbEntity
  8
0
  6
Continuous
 62
     7
370
    15
100
AcDbLine
 10
-19.9284938328
 20
-19.9386336766
 30
0.0
 11
-18.6343382132
 21
-19.9164300262
 31
0.0
  0
LINE
  5
13A
330
1F
100
AcDbEntity
  8
0
  6
Continuous
 62
     7
370
    15
100
AcDbLine
 10
-21.197273852
 20
-19.9608373269
 30
0.0
 11
-19.9284938328
 21
-19.9386336766
 31
0.0
  0
LINE
  5
13B
330
1F
100
AcDbEntity
  8
0
  6
Continuous
 62
     7
370
    15
100
AcDbLine
 10
-19.3131355235
 20
-17.6580015921
 30
0.0
 11
-21.197273852
 21
-19.9608373269
 31
0.0
  0
LINE
  5
13C
330
1F
100
AcDbEntity
  8
0
  6
Continuous
 62
     7
370
    15
100
AcDbLine
 10
-16.9436888376
 20
-13.033298422
 30
0.0
 11
-16.9436888376
 21
-13.363181227
 31
0.0
  0
LINE
  5
13D
330
1F
100
AcDbEntity
  8
0
  6
Continuous
 62
     7
370
    15
100
AcDbLine
 10
-24.4009434005
 20
-12.1578402088
 30
0.0
 11
-24.6420116042
 21
-11.7169391521
 31
0.0
  0
LINE
  5
13E
330
1F
100
AcDbEntity
  8
0
  6
Continuous
 62
     7
370
    15
100
AcDbLine
 10
-24.1154678962
 20
-12.0912292578
 30
0.0
 11
-24.4009434005
 21
-12.1578402088
 31
0.0
  0
LINE
  5
13F
330
1F
100
AcDbEntity
  8
0
  6
Continuous
 62
     7
370
    15
100
AcDbLine
 10
-23.7633814409
 20
-12.0246183067
 30
0.0
 11
-24.1154678962
 21
-12.0912292578
 31
0.0
  0
LINE
  5
140
330
1F
100
AcDbEntity
  8
0
  6
Continuous
 62
     7
370
    15
100
AcDbLine
 10
-24.4643824015
 20
-21.5182648005
 30
0.0
 11
-22.4692258213
 21
-19.567515521
 31
0.0
  0
LINE
  5
141
330
1F
100
AcDbEntity
  8
0
  6
Continuous
 62
     7
370
    15
100
AcDbLine
 10
-24.6198079538
 20
-21.6483147525
 30
0.0
 11
-24.4643824015
 21
-21.5182648005
 31
0.0
  0
LINE
  5
142
330
1F
100
AcDbEntity
  8
0
  6
Continuous
 62
     7
370
    15
100
AcDbLine
 10
-24.9687224591
 20
-22.0226048581
 30
0.0
 11
-24.6198079538
 21
-21.6483147525
 31
0.0
  0
LINE
  5
143
330
1F
100
AcDbEntity
  8
0
  6
Continuous
 62
     7
370
    15
100
AcDbLine
 10
-24.4199751008
 20
-22.7014021684
 30
0.0
 11
-24.9687224591
 21
-22.0226048581
 31
0.0
  0
LINE
  5
144
330
1F
100
AcDbEntity
  8
0
  6
Continuous
 62
     7
370
    15
100
AcDbLine
 10
24.7769701441
 20
5.5266170439
 30
0.0
 11
24.0950008838
 21
4.673362481
 31
0.0
  0
LINE
  5
145
330
1F
100
AcDbEntity
  8
0
  6
Continuous
 62
     7
370
    15
100
AcDbLine
 10
26.550090221
 20
7.7628418277
 30
0.0
 11
24.7769701441
 21
5.5266170439
 31
0.0
  0
LINE
  5
146
330
1F
100
AcDbEntity
  8
0
  6
Continuous
 62
     7
370
    15
100
AcDbLine
 10
25.0814773499
 20
7.7184345271
 30
0.0
 11
26.550090221
 21
7.7628418277
 31
0.0
  0
LINE
  5
147
330
1F
100
AcDbEntity
  8
0
  6
Continuous
 62
     7
370
    15
100
AcDbLine
 10
23.5906608262
 20
7.6771991764
 30
0.0
 11
25.0814773499
 21
7.7184345271
 31
0.0
  0
LINE
  5
148
330
1F
100
AcDbEntity
  8
0
  6
Continuous
 62
     7
370
    15
100
AcDbLine
 10
22.2965051771
 20
7.6549955256
 30
0.0
 11
23.5906608262
 21
7.6771991764
 31
0.0
  0
LINE
  5
149
330
1F
100
AcDbEntity
  8
0
  6
Continuous
 62
     7
370
    15
100
AcDbLine
 10
21.0277251874
 20
7.6327918758
 30
0.0
 11
22.2965051771
 21
7.6549955256
 31
0.0
  0
LINE
  5
14A
330
1F
100
AcDbEntity
  8
0
  6
Continuous
 62
     7
370
    15
100
AcDbLine
 10
22.9118635159
 20
9.9356276106
 30
0.0
 11
21.0277251874
 21
7.6327918758
 31
0.0
  0
LINE
  5
14B
330
1F
100
AcDbEntity
  8
0
  6
Continuous
 62
     7
370
    15
100
AcDbLine
 10
25.2813102018
 20
14.5603307807
 30
0.0
 11
25.2813102018
 21
14.2304479757
 31
0.0
  0
LINE
  5
14C
330
1F
100
AcDbEntity
  8
0
  6
Continuous
 62
     7
370
    15
100
AcDbLine
 10
17.8240556389
 20
15.4357889939
 30
0.0
 11
17.5829874352
 21
15.8766900506
 31
0.0
  0
LINE
  5
14D
330
1F
100
AcDbEntity
  8
0
  6
Continuous
 62
     7
370
    15
100
AcDbLine
 10
18.1095311432
 20
15.5023999449
 30
0.0
 11
17.8240556389
 21
15.4357889939
 31
0.0
  0
LINE
  5
14E
330
1F
100
AcDbEntity
  8
0
  6
Continuous
 62
     7
370
    15
100
AcDbLine
 10
18.4616175985
 20
15.5690108959
 30
0.0
 11
18.1095311432
 21
15.5023999449
 31
0.0
  0
LINE
  5
14F
330
1F
100
AcDbEntity
  8
0
  6
Continuous
 62
     7
370
    15
100
AcDbLine
 10
17.7606166379
 20
6.0753644022
 30
0.0
 11
19.7557732181
 21
8.0261136817
 31
0.0
  0
LINE
  5
150
330
1F
100
AcDbEntity
  8
0
  6
Continuous
 62
     7
370
    15
100
AcDbLine
 10
17.6051910855
 20
5.9453144502
 30
0.0
 11
17.7606166379
 21
6.0753644022
 31
0.0
  0
LINE
  5
151
330
1F
100
AcDbEntity
  8
0
  6
Continuous
 62
     7
370
    15
100
AcDbLine
 10
17.2562765803
 20
5.5710243445
 30
0.0
 11
17.6051910855
 21
5.9453144502
 31
0.0
  0
LINE
  5
152
330
1F
100
AcDbEntity
  8
0
  6
Continuous
 62
     7
370
    15
100
AcDbLine
 10
17.8050239386
 20
4.8922270343
 30
0.0
 11
17.2562765803
 21
5.5710243445
 31
0.0
  0
LINE
  5
153
330
1F
100
AcDbEntity
  8
0
  6
Continuous
 62
     7
370
    15
100
AcDbLine
 10
12.7996867628
 20
5.5266170439
 30
0.0
 11
12.1177175024
 21
4.673362481
 31
0.0
  0
LINE
  5
154
330
1F
100
AcDbEntity
  8
0
  6
Continuous
 62
     7
370
    15
100
AcDbLine
 10
14.5728068396
 20
7.7628418277
 30
0.0
 11
12.7996867628
 21
5.5266170439
 31
0.0
  0
LINE
  5
155
330
1F
100
AcDbEntity
  8
0
  6
Continuous
 62
     7
370
    15
100
AcDbLine
 10
13.1041939674
 20
7.7184345271
 30
0.0
 11
14.5728068396
 21
7.7628418277
 31
0.0
  0
LINE
  5
156
330
1F
100
AcDbEntity
  8
0
  6
Continuous
 62
     7
370
    15
100
AcDbLine
 10
11.6133774448
 20
7.6771991764
 30
0.0
 11
13.1041939674
 21
7.7184345271
 31
0.0
  0
LINE
  5
157
330
1F
100
AcDbEntity
  8
0
  6
Continuous
 62
     7
370
    15
100
AcDbLine
 10
10.3192218252
 20
7.6549955261
 30
0.0
 11
11.6133774448
 21
7.6771991764
 31
0.0
  0
LINE
  5
158
330
1F
100
AcDbEntity
  8
0
  6
Continuous
 62
     7
370
    15
100
AcDbLine
 10
9.050441806
 20
7.6327918758
 30
0.0
 11
10.3192218252
 21
7.6549955261
 31
0.0
  0
LINE
  5
159
330
1F
100
AcDbEntity
  8
0
  6
Continuous
 62
     7
370
    15
100
AcDbLine
 10
10.9345801345
 20
9.9356276106
 30
0.0
 11
9.050441806
 21
7.6327918758
 31
0.0
  0
LINE
  5
15A
330
1F
100
AcDbEntity
  8
0
  6
Continuous
 62
     7
370
    15
100
AcDbLine
 10
13.3040268204
 20
14.5603307807
 30
0.0
 11
13.3040268204
 21
14.2304479757
 31
0.0
  0
LINE
  5
15B
330
1F
100
AcDbEntity
  8
0
  6
Continuous
 62
     7
370
    15
100
AcDbLine
 10
5.8467722575
 20
15.4357889939
 30
0.0
 11
5.6057040538
 21
15.8766900506
 31
0.0
  0
LINE
  5
15C
330
1F
100
AcDbEntity
  8
0
  6
Continuous
 62
     7
370
    15
100
AcDbLine
 10
6.1322477618
 20
15.5023999449
 30
0.0
 11
5.8467722575
 21
15.4357889939
 31
0.0
  0
LINE
  5
15D
330
1F
100
AcDbEntity
  8
0
  6
Continuous
 62
     7
370
    15
100
AcDbLine
 10
6.4843342171
 20
15.5690108959
 30
0.0
 11
6.1322477618
 21
15.5023999449
 31
0.0
  0
LINE
  5
15E
330
1F
100
AcDbEntity
  8
0
  6
Continuous
 62
     7
370
    15
100
AcDbLine
 10
5.7833332565
 20
6.0753644022
 30
0.0
 11
7.7784898367
 21
8.0261136817
 31
0.0
  0
LINE
  5
15F
330
1F
100
AcDbEntity
  8
0
  6
Continuous
 62
     7
370
    15
100
AcDbLine
 10
5.6279077042
 20
5.9453144502
 30
0.0
 11
5.7833332565
 21
6.0753644022
 31
0.0
  0
LINE
  5
160
330
1F
100
AcDbEntity
  8
0
  6
Continuous
 62
     7
370
    15
100
AcDbLine
 10
5.2789931989
 20
5.5710243445
 30
0.0
 11
5.6279077042
 21
5.9453144502
 31
0.0
  0
LINE
  5
161
330
1F
100
AcDbEntity
  8
0
  6
Continuous
 62
     7
370
    15
100
AcDbLine
 10
5.8277405572
 20
4.8922270343
 30
0.0
 11
5.2789931989
 21
5.5710243445
 31
0.0
  0
LINE
  5
162
330
1F
100
AcDbEntity
  8
0
  6
Continuous
 62
     7
370
    15
100
AcDbLine
 10
-7.7513775984
 20
17.3453029229
 30
0.0
 11
-7.3136484918
 21
17.7164210785
 31
0.0
  0
LINE
  5
163
330
1F
100
AcDbEntity
  8
0
  6
Continuous
 62
     7
370
    15
100
AcDbLine
 10
-9.242194121
 20
16.0733509536
 30
0.0
 11
-7.7513775984
 21
17.3453029229
 31
0.0
  0
LINE
  5
164
330
1F
100
AcDbEntity
  8
0
  6
Continuous
 62
     7
370
    15
100
AcDbLine
 10
-9.442026974
 20
15.8766900506
 30
0.0
 11
-9.242194121
 21
16.0733509536
 31
0.0
  0
LINE
  5
165
330
1F
100
AcDbEntity
  8
0
  6
Continuous
 62
     7
370
    15
100
AcDbLine
 10
-10.1208242843
 20
15.2391280909
 30
0.0
 11
-9.442026974
 21
15.8766900506
 31
0.0
  0
LINE
  5
166
330
1F
100
AcDbEntity
  8
0
  6
Continuous
 62
     7
370
    15
100
AcDbLine
 10
-7.8623958501
 20
12.5207668998
 30
0.0
 11
-7.5769203458
 21
12.6952241524
 31
0.0
  0
LINE
  5
167
330
1F
100
AcDbEntity
  8
0
  6
Continuous
 62
     7
370
    15
100
AcDbLine
 10
-9.2643977713
 20
11.5120867845
 30
0.0
 11
-7.8623958501
 21
12.5207668998
 31
0.0
  0
LINE
  5
168
330
1F
100
AcDbEntity
  8
0
  6
Continuous
 62
     7
370
    15
100
AcDbLine
 10
-8.782261364
 20
11.3598331822
 30
0.0
 11
-9.2643977713
 21
11.5120867845
 31
0.0
  0
LINE
  5
169
330
1F
100
AcDbEntity
  8
0
  6
Continuous
 62
     7
370
    15
100
AcDbLine
 10
-6.4159866282
 20
9.0125901467
 30
0.0
 11
-6.6126475312
 21
9.5169302043
 31
0.0
  0
LINE
  5
16A
330
1F
100
AcDbEntity
  8
0
  6
Continuous
 62
     7
370
    15
100
AcDbLine
 10
-7.4881057444
 20
16.5110800602
 30
0.0
 11
-8.1478713544
 21
15.8766900506
 31
0.0
  0
LINE
  5
16B
330
1F
100
AcDbEntity
  8
0
  6
Continuous
 62
     7
370
    15
100
AcDbLine
 10
-7.2914448415
 20
16.6855373128
 30
0.0
 11
-7.4881057444
 21
16.5110800602
 31
0.0
  0
LINE
  5
16C
330
1F
100
AcDbEntity
  8
0
  6
Continuous
 62
     7
370
    15
100
AcDbLine
 10
-6.8759193852
 20
17.0154201178
 30
0.0
 11
-7.2914448415
 21
16.6855373128
 31
0.0
  0
LINE
  5
16D
330
1F
100
AcDbEntity
  8
0
  6
Continuous
 62
     7
370
    15
100
AcDbLine
 10
-6.4794256292
 20
17.3230992725
 30
0.0
 11
-6.8759193852
 21
17.0154201178
 31
0.0
  0
LINE
  5
16E
330
1F
100
AcDbEntity
  8
0
  6
Continuous
 62
     7
370
    15
100
AcDbLine
 10
-6.2605610758
 20
17.4975565251
 30
0.0
 11
-6.4794256292
 21
17.3230992725
 31
0.0
  0
LINE
  5
16F
330
1F
100
AcDbEntity
  8
0
  6
Continuous
 62
     7
370
    15
100
AcDbLine
 10
-6.7014621325
 20
18.1129148345
 30
0.0
 11
-6.2605610758
 21
17.4975565251
 31
0.0
  0
LINE
  5
170
330
1F
100
AcDbEntity
  8
0
  6
Continuous
 62
     7
370
    15
100
AcDbLine
 10
-7.2470375408
 20
17.7608283791
 30
0.0
 11
-6.7014621325
 21
18.1129148345
 31
0.0
  0
LINE
  5
171
330
1F
100
AcDbEntity
  8
0
  6
Continuous
 62
     7
370
    15
100
AcDbLine
 10
-7.3136484918
 20
17.7164210785
 30
0.0
 11
-7.2470375408
 21
17.7608283791
 31
0.0
  0
LINE
  5
172
330
1F
100
AcDbEntity
  8
0
  6
Continuous
 62
     7
370
    15
100
AcDbLine
 10
-17.4480288952
 20
5.5266170439
 30
0.0
 11
-18.1299981556
 21
4.673362481
 31
0.0
  0
LINE
  5
173
330
1F
100
AcDbEntity
  8
0
  6
Continuous
 62
     7
370
    15
100
AcDbLine
 10
-15.6749088184
 20
7.7628418277
 30
0.0
 11
-17.4480288952
 21
5.5266170439
 31
0.0
  0
LINE
  5
174
330
1F
100
AcDbEntity
  8
0
  6
Continuous
 62
     7
370
    15
100
AcDbLine
 10
-17.1435216906
 20
7.7184345271
 30
0.0
 11
-15.6749088184
 21
7.7628418277
 31
0.0
  0
LINE
  5
175
330
1F
100
AcDbEntity
  8
0
  6
Continuous
 62
     7
370
    15
100
AcDbLine
 10
-18.6343382132
 20
7.6771991764
 30
0.0
 11
-17.1435216906
 21
7.7184345271
 31
0.0
  0
LINE
  5
176
330
1F
100
AcDbEntity
  8
0
  6
Continuous
 62
     7
370
    15
100
AcDbLine
 10
-19.9284938328
 20
7.6549955261
 30
0.0
 11
-18.6343382132
 21
7.6771991764
 31
0.0
  0
LINE
  5
177
330
1F
100
AcDbEntity
  8
0
  6
Continuous
 62
     7
370
    15
100
AcDbLine
 10
-21.197273852
 20
7.6327918758
 30
0.0
 11
-19.9284938328
 21
7.6549955261
 31
0.0
  0
LINE
  5
178
330
1F
100
AcDbEntity
  8
0
  6
Continuous
 62
     7
370
    15
100
AcDbLine
 10
-19.3131355235
 20
9.9356276106
 30
0.0
 11
-21.197273852
 21
7.6327918758
 31
0.0
  0
LINE
  5
179
330
1F
100
AcDbEntity
  8
0
  6
Continuous
 62
     7
370
    15
100
AcDbLine
 10
-16.9436888376
 20
14.5603307807
 30
0.0
 11
-16.9436888376
 21
14.2304479757
 31
0.0
  0
LINE
  5
17A
330
1F
100
AcDbEntity
  8
0
  6
Continuous
 62
     7
370
    15
100
AcDbLine
 10
-24.4009434005
 20
15.4357889939
 30
0.0
 11
-24.6420116042
 21
15.8766900506
 31
0.0
  0
LINE
  5
17B
330
1F
100
AcDbEntity
  8
0
  6
Continuous
 62
     7
370
    15
100
AcDbLine
 10
-24.1154678962
 20
15.5023999449
 30
0.0
 11
-24.4009434005
 21
15.4357889939
 31
0.0
  0
LINE
  5
17C
330
1F
100
AcDbEntity
  8
0
  6
Continuous
 62
     7
370
    15
100
AcDbLine
 10
-23.7633814409
 20
15.5690108959
 30
0.0
 11
-24.1154678962
 21
15.5023999449
 31
0.0
  0
LINE
  5
17D
330
1F
100
AcDbEntity
  8
0
  6
Continuous
 62
     7
370
    15
100
AcDbLine
 10
-24.4643824015
 20
6.0753644022
 30
0.0
 11
-22.4692258213
 21
8.0261136817
 31
0.0
  0
LINE
  5
17E
330
1F
100
AcDbEntity
  8
0
  6
Continuous
 62
     7
370
    15
100
AcDbLine
 10
-24.6198079538
 20
5.9453144502
 30
0.0
 11
-24.4643824015
 21
6.0753644022
 31
0.0
  0
LINE
  5
17F
330
1F
100
AcDbEntity
  8
0
  6
Continuous
 62
     7
370
    15
100
AcDbLine
 10
-24.9687224591
 20
5.5710243445
 30
0.0
 11
-24.6198079538
 21
5.9453144502
 31
0.0
  0
LINE
  5
180
330
1F
100
AcDbEntity
  8
0
  6
Continuous
 62
     7
370
    15
100
AcDbLine
 10
-24.4199751008
 20
4.8922270343
 30
0.0
 11
-24.9687224591
 21
5.5710243445
 31
0.0
  0
LINE
  5
181
330
1F
100
AcDbEntity
  8
0
  6
Continuous
 62
     7
370
    15
100
AcDbLine
 10
-30.0
 20
22.0
 30
0.0
 11
-30.0
 21
-22.0
 31
0.0
  0
LINE
  5
182
330
1F
100
AcDbEntity
  8
0
  6
Continuous
 62
     7
370
    15
100
AcDbLine
 10
22.0
 20
30.0
 30
0.0
 11
-22.0
 21
30.0
 31
0.0
  0
LINE
  5
183
330
1F
100
AcDbEntity
  8
0
  6
Continuous
 62
     7
370
    15
100
AcDbLine
 10
30.0
 20
-22.0
 30
0.0
 11
30.0
 21
22.0
 31
0.0
  0
LINE
  5
184
330
1F
100
AcDbEntity
  8
0
  6
Continuous
 62
     7
370
    15
100
AcDbLine
 10
-22.0
 20
-30.0
 30
0.0
 11
22.0
 21
-30.0
 31
0.0
  0
ARC
  5
185
330
1F
100
AcDbEntity
  8
0
  6
Continuous
 62
     7
370
    15
100
AcDbCircle
 10
-22.0
 20
22.0
 30
0.0
 40
8.0
100
AcDbArc
 50
90.0
 51
180.0
  0
ARC
  5
186
330
1F
100
AcDbEntity
  8
0
  6
Continuous
 62
     7
370
    15
100
AcDbCircle
 10
22.0
 20
22.0
 30
0.0
 40
7.999999999999993
100
AcDbArc
 50
0.0
 51
90.0
  0
ARC
  5
187
330
1F
100
AcDbEntity
  8
0
  6
Continuous
 62
     7
370
    15
100
AcDbCircle
 10
22.0
 20
-22.0
 30
0.0
 40
8.0
100
AcDbArc
 50
270.0
 51
0.0
  0
ARC
  5
188
330
1F
100
AcDbEntity
  8
0
  6
Continuous
 62
     7
370
    15
100
AcDbCircle
 10
-22.0
 20
-22.0
 30
0.0
 40
7.999999999999993
100
AcDbArc
 50
180.0
 51
270.0
  0
ENDSEC
  0
SECTION
  2
OBJECTS
  0
DICTIONARY
  5
C
330
0
100
AcDbDictionary
281
     1
  3
ACAD_GROUP
350
D
  3
ACAD_LAYOUT
350
1A
  3
ACAD_MLINESTYLE
350
17
  3
ACAD_PLOTSETTINGS
350
19
  3
ACAD_PLOTSTYLENAME
350
E
  3
ACAD_SCALELIST
350
47
  0
DICTIONARY
  5
D
102
{ACAD_REACTORS
330
C
102
}
330
C
100
AcDbDictionary
281
     1
  0
DICTIONARY
  5
1A
102
{ACAD_REACTORS
330
C
102
}
330
C
100
AcDbDictionary
281
     1
  3
Layout1
350
1E
  3
Layout2
350
26
  3
Model
350
22
  0
DICTIONARY
  5
17
102
{ACAD_REACTORS
330
C
102
}
330
C
100
AcDbDictionary
281
     1
  3
Standard
350
18
  0
DICTIONARY
  5
19
102
{ACAD_REACTORS
330
C
102
}
330
C
100
AcDbDictionary
281
     1
  0
ACDBDICTIONARYWDFLT
  5
E
102
{ACAD_REACTORS
330
C
102
}
330
C
100
AcDbDictionary
281
     1
  3
Normal
350
F
100
AcDbDictionaryWithDefault
340
F
  0
DICTIONARY
  5
47
102
{ACAD_REACTORS
330
C
102
}
330
C
100
AcDbDictionary
281
     1
  3
A0
350
48
  3
A1
350
49
  3
A2
350
4A
  3
A3
350
4B
  3
A4
350
4C
  3
A5
350
4D
  3
A6
350
4E
  3
A7
350
4F
  3
A8
350
50
  3
A9
350
51
  3
B0
350
52
  3
B1
350
53
  3
B2
350
54
  3
B3
350
55
  3
B4
350
56
  3
B5
350
57
  3
B6
350
58
  3
B7
350
59
  3
B8
350
5A
  3
B9
350
5B
  3
C0
350
5C
  3
C1
350
5D
  3
C2
350
5E
  3
C3
350
5F
  3
C4
350
60
  3
C5
350
61
  3
C6
350
62
  3
C7
350
63
  3
C8
350
64
  3
C9
350
65
  3
D0
350
66
  3
D1
350
67
  3
D2
350
68
  0
LAYOUT
  5
1E
102
{ACAD_REACTORS
330
1A
102
}
330
1A
100
AcDbPlotSettings
  1

  2
none_device
  4

  6

 40
0.0
 41
0.0
 42
0.0
 43
0.0
 44
0.0
 45
0.0
 46
0.0
 47
0.0
 48
0.0
 49
0.0
140
0.0
141
0.0
142
1.0
143
1.0
 70
   688
 72
     1
 73
     0
 74
     5
  7

 75
    16
147
1.0
148
0.0
149
0.0
100
AcDbLayout
  1
Layout1
 70
     1
 71
     1
 10
0.0
 20
0.0
 11
420.0
 21
297.0
 12
0.0
 22
0.0
 32
0.0
 14
1.0000000000E+20
 24
1.0000000000E+20
 34
1.0000000000E+20
 15
-1.0000000000E+20
 25
-1.0000000000E+20
 35
-1.0000000000E+20
146
0.0
 13
0.0
 23
0.0
 33
0.0
 16
1.0
 26
0.0
 36
0.0
 17
0.0
 27
1.0
 37
0.0
 76
     0
330
1B
  0
LAYOUT
  5
26
102
{ACAD_REACTORS
330
1A
102
}
330
1A
100
AcDbPlotSettings
  1

  2
none_device
  4

  6

 40
0.0
 41
0.0
 42
0.0
 43
0.0
 44
0.0
 45
0.0
 46
0.0
 47
0.0
 48
0.0
 49
0.0
140
0.0
141
0.0
142
1.0
143
1.0
 70
   688
 72
     1
 73
     0
 74
     5
  7

 75
    16
147
1.0
148
0.0
149
0.0
100
AcDbLayout
  1
Layout2
 70
     1
 71
     2
 10
0.0
 20
0.0
 11
0.0
 21
0.0
 12
0.0
 22
0.0
 32
0.0
 14
0.0
 24
0.0
 34
0.0
 15
0.0
 25
0.0
 35
0.0
146
0.0
 13
0.0
 23
0.0
 33
0.0
 16
1.0
 26
0.0
 36
0.0
 17
0.0
 27
1.0
 37
0.0
 76
     0
330
23
  0
LAYOUT
  5
22
102
{ACAD_REACTORS
330
1A
102
}
330
1A
100
AcDbPlotSettings
  1

  2
none_device
  4
ANSI_A_(11.00_x_8.50_Inches)
  6

 40
6.35
 41
19.05
 42
6.35000508
 43
19.05000254
 44
279.4
 45
215.9
 46
133.34999746
 47
88.89999873
 48
0.0
 49
0.0
140
0.0
141
0.0
142
0.14025
143
1.0
 70
  1696
 72
     0
 73
     0
 74
     0
  7

 75
     0
147
0.0179189148
148
-1300.4909072572
149
0.0
100
AcDbLayout
  1
Model
 70
     1
 71
     0
 10
0.0
 20
0.0
 11
420.0
 21
297.0
 12
0.0
 22
0.0
 32
0.0
 14
-30.0
 24
-30.0
 34
0.0
 15
30.0
 25
30.0
 35
0.0
146
0.0
 13
0.0
 23
0.0
 33
0.0
 16
1.0
 26
0.0
 36
0.0
 17
0.0
 27
1.0
 37
0.0
 76
     0
330
1F
331
29
  0
MLINESTYLE
  5
18
102
{ACAD_REACTORS
330
17
102
}
330
17
100
AcDbMlineStyle
  2
Standard
 70
     0
  3

 62
   256
 51
90.0
 52
90.0
 71
     2
 49
0.5
 62
   256
  6
BYLAYER
 49
-0.5
 62
   256
  6
BYLAYER
  0
ACDBPLACEHOLDER
  5
F
102
{ACAD_REACTORS
330
E
102
}
330
E
  0
SCALE
  5
48
102
{ACAD_REACTORS
330
47
102
}
330
47
100
AcDbScale
 70
     0
300
1:1
140
1.0
141
1.0
290
     1
  0
SCALE
  5
49
102
{ACAD_REACTORS
330
47
102
}
330
47
100
AcDbScale
 70
     0
300
1:2
140
1.0
141
2.0
290
     0
  0
SCALE
  5
4A
102
{ACAD_REACTORS
330
47
102
}
330
47
100
AcDbScale
 70
     0
300
1:4
140
1.0
141
4.0
290
     0
  0
SCALE
  5
4B
102
{ACAD_REACTORS
330
47
102
}
330
47
100
AcDbScale
 70
     0
300
1:5
140
1.0
141
5.0
290
     0
  0
SCALE
  5
4C
102
{ACAD_REACTORS
330
47
102
}
330
47
100
AcDbScale
 70
     0
300
1:8
140
1.0
141
8.0
290
     0
  0
SCALE
  5
4D
102
{ACAD_REACTORS
330
47
102
}
330
47
100
AcDbScale
 70
     0
300
1:10
140
1.0
141
10.0
290
     0
  0
SCALE
  5
4E
102
{ACAD_REACTORS
330
47
102
}
330
47
100
AcDbScale
 70
     0
300
1:16
140
1.0
141
16.0
290
     0
  0
SCALE
  5
4F
102
{ACAD_REACTORS
330
47
102
}
330
47
100
AcDbScale
 70
     0
300
1:20
140
1.0
141
20.0
290
     0
  0
SCALE
  5
50
102
{ACAD_REACTORS
330
47
102
}
330
47
100
AcDbScale
 70
     0
300
1:30
140
1.0
141
30.0
290
     0
  0
SCALE
  5
51
102
{ACAD_REACTORS
330
47
102
}
330
47
100
AcDbScale
 70
     0
300
1:40
140
1.0
141
40.0
290
     0
  0
SCALE
  5
52
102
{ACAD_REACTORS
330
47
102
}
330
47
100
AcDbScale
 70
     0
300
1:50
140
1.0
141
50.0
290
     0
  0
SCALE
  5
53
102
{ACAD_REACTORS
330
47
102
}
330
47
100
AcDbScale
 70
     0
300
1:100
140
1.0
141
100.0
290
     0
  0
SCALE
  5
54
102
{ACAD_REACTORS
330
47
102
}
330
47
100
AcDbScale
 70
     0
300
2:1
140
2.0
141
1.0
290
     0
  0
SCALE
  5
55
102
{ACAD_REACTORS
330
47
102
}
330
47
100
AcDbScale
 70
     0
300
4:1
140
4.0
141
1.0
290
     0
  0
SCALE
  5
56
102
{ACAD_REACTORS
330
47
102
}
330
47
100
AcDbScale
 70
     0
300
8:1
140
8.0
141
1.0
290
     0
  0
SCALE
  5
57
102
{ACAD_REACTORS
330
47
102
}
330
47
100
AcDbScale
 70
     0
300
10:1
140
10.0
141
1.0
290
     0
  0
SCALE
  5
58
102
{ACAD_REACTORS
330
47
102
}
330
47
100
AcDbScale
 70
     0
300
100:1
140
100.0
141
1.0
290
     0
  0
SCALE
  5
59
102
{ACAD_REACTORS
330
47
102
}
330
47
100
AcDbScale
 70
     0
300
1/128" = 1'-0"
140
0.0078125
141
12.0
290
     0
  0
SCALE
  5
5A
102
{ACAD_REACTORS
330
47
102
}
330
47
100
AcDbScale
 70
     0
300
1/64" = 1'-0"
140
0.015625
141
12.0
290
     0
  0
SCALE
  5
5B
102
{ACAD_REACTORS
330
47
102
}
330
47
100
AcDbScale
 70
     0
300
1/32" = 1'-0"
140
0.03125
141
12.0
290
     0
  0
SCALE
  5
5C
102
{ACAD_REACTORS
330
47
102
}
330
47
100
AcDbScale
 70
     0
300
1/16" = 1'-0"
140
0.0625
141
12.0
290
     0
  0
SCALE
  5
5D
102
{ACAD_REACTORS
330
47
102
}
330
47
100
AcDbScale
 70
     0
300
3/32" = 1'-0"
140
0.09375
141
12.0
290
     0
  0
SCALE
  5
5E
102
{ACAD_REACTORS
330
47
102
}
330
47
100
AcDbScale
 70
     0
300
1/8" = 1'-0"
140
0.125
141
12.0
290
     0
  0
SCALE
  5
5F
102
{ACAD_REACTORS
330
47
102
}
330
47
100
AcDbScale
 70
     0
300
3/16" = 1'-0"
140
0.1875
141
12.0
290
     0
  0
SCALE
  5
60
102
{ACAD_REACTORS
330
47
102
}
330
47
100
AcDbScale
 70
     0
300
1/4" = 1'-0"
140
0.25
141
12.0
290
     0
  0
SCALE
  5
61
102
{ACAD_REACTORS
330
47
102
}
330
47
100
AcDbScale
 70
     0
300
3/8" = 1'-0"
140
0.375
141
12.0
290
     0
  0
SCALE
  5
62
102
{ACAD_REACTORS
330
47
102
}
330
47
100
AcDbScale
 70
     0
300
1/2" = 1'-0"
140
0.5
141
12.0
290
     0
  0
SCALE
  5
63
102
{ACAD_REACTORS
330
47
102
}
330
47
100
AcDbScale
 70
     0
300
3/4" = 1'-0"
140
0.75
141
12.0
290
     0
  0
SCALE
  5
64
102
{ACAD_REACTORS
330
47
102
}
330
47
100
AcDbScale
 70
     0
300
1" = 1'-0"
140
1.0
141
12.0
290
     0
  0
SCALE
  5
65
102
{ACAD_REACTORS
330
47
102
}
330
47
100
AcDbScale
 70
     0
300
1-1/2" = 1'-0"
140
1.5
141
12.0
290
     0
  0
SCALE
  5
66
102
{ACAD_REACTORS
330
47
102
}
330
47
100
AcDbScale
 70
     0
300
3" = 1'-0"
140
3.0
141
12.0
290
     0
  0
SCALE
  5
67
102
{ACAD_REACTORS
330
47
102
}
330
47
100
AcDbScale
 70
     0
300
6" = 1'-0"
140
6.0
141
12.0
290
     0
  0
SCALE
  5
68
102
{ACAD_REACTORS
330
47
102
}
330
47
100
AcDbScale
 70
     0
300
1'-0" = 1'-0"
140
12.0
141
12.0
290
     0
  0
ENDSEC
  0
EOF
